<svg id="my-svg" width="100%" xmlns="http://www.w3.org/2000/svg" xmlns:xlink="http://www.w3.org/1999/xlink" class="flowchart" style="max-width: 3824.64px; background-color: white;" viewBox="0 0 3824.640625 1592" role="graphics-document document" aria-roledescription="flowchart-v2"><style>#my-svg{font-size:16px;fill:#713f12;}@keyframes edge-animation-frame{from{stroke-dashoffset:0;}}@keyframes dash{to{stroke-dashoffset:0;}}#my-svg .edge-animation-slow{stroke-dasharray:9,5!important;stroke-dashoffset:900;animation:dash 50s linear infinite;stroke-linecap:round;}#my-svg .edge-animation-fast{stroke-dasharray:9,5!important;stroke-dashoffset:900;animation:dash 20s linear infinite;stroke-linecap:round;}#my-svg .error-icon{fill:#eff6ff;}#my-svg .error-text{fill:#100900;stroke:#100900;}#my-svg .edge-thickness-normal{stroke-width:1px;}#my-svg .edge-thickness-thick{stroke-width:3.5px;}#my-svg .edge-pattern-solid{stroke-dasharray:0;}#my-svg .edge-thickness-invisible{stroke-width:0;fill:none;}#my-svg .edge-pattern-dashed{stroke-dasharray:3;}#my-svg .edge-pattern-dotted{stroke-dasharray:2;}#my-svg .marker{fill:#a16207;stroke:#a16207;}#my-svg .marker.cross{stroke:#a16207;}#my-svg svg{font-size:16px;}#my-svg p{margin:0;}#my-svg .label{color:#713f12;}#my-svg .cluster-label text{fill:#100900;}#my-svg .cluster-label span{color:#100900;}#my-svg .cluster-label span p{background-color:transparent;}#my-svg .label text,#my-svg span{fill:#713f12;color:#713f12;}#my-svg .node rect,#my-svg .node circle,#my-svg .node ellipse,#my-svg .node polygon,#my-svg .node path{fill:#fefce8;stroke:#fbbf24;stroke-width:1px;}#my-svg .rough-node .label text,#my-svg .node .label text,#my-svg .image-shape .label,#my-svg .icon-shape .label{text-anchor:middle;}#my-svg .node .katex path{fill:#000;stroke:#000;stroke-width:1px;}#my-svg .rough-node .label,#my-svg .node .label,#my-svg .image-shape .label,#my-svg .icon-shape .label{text-align:center;}#my-svg .node.clickable{cursor:pointer;}#my-svg .root .anchor path{fill:#a16207!important;stroke-width:0;stroke:#a16207;}#my-svg .arrowheadPath{fill:#000000;}#my-svg .edgePath .path{stroke:#a16207;stroke-width:1px;}#my-svg .flowchart-link{stroke:#a16207;fill:none;}#my-svg .edgeLabel{background-color:#f0fdf4;text-align:center;}#my-svg .edgeLabel p{background-color:#f0fdf4;}#my-svg .edgeLabel rect{opacity:0.5;background-color:#f0fdf4;fill:#f0fdf4;}#my-svg .labelBkg{background-color:rgba(240, 253, 244, 0.5);}#my-svg .cluster rect{fill:#fffbeb;stroke:#f59e0b;stroke-width:1px;}#my-svg .cluster text{fill:#100900;}#my-svg .cluster span{color:#100900;}#my-svg div.mermaidTooltip{position:absolute;text-align:center;max-width:200px;padding:2px;font-size:12px;background:#eff6ff;border:1px solid hsl(213.75, 60%, 86.862745098%);border-radius:2px;pointer-events:none;z-index:100;}#my-svg .flowchartTitleText{text-anchor:middle;font-size:18px;fill:#713f12;}#my-svg rect.text{fill:none;stroke-width:0;}#my-svg .icon-shape,#my-svg .image-shape{background-color:#f0fdf4;text-align:center;}#my-svg .icon-shape p,#my-svg .image-shape p{background-color:#f0fdf4;padding:2px;}#my-svg .icon-shape .label rect,#my-svg .image-shape .label rect{opacity:0.5;background-color:#f0fdf4;fill:#f0fdf4;}#my-svg .label-icon{display:inline-block;height:1em;overflow:visible;vertical-align:-0.125em;}#my-svg .node .label-icon path{fill:currentColor;stroke:revert;stroke-width:revert;}#my-svg .node .neo-node{stroke:#fbbf24;}#my-svg [data-look="neo"].node rect,#my-svg [data-look="neo"].cluster rect,#my-svg [data-look="neo"].node polygon{stroke:url(#my-svg-gradient);filter:drop-shadow( 1px 2px 2px rgba(185,185,185,1));}#my-svg [data-look="neo"].node path{stroke:url(#my-svg-gradient);stroke-width:1px;}#my-svg [data-look="neo"].node .outer-path{filter:drop-shadow( 1px 2px 2px rgba(185,185,185,1));}#my-svg [data-look="neo"].node .neo-line path{stroke:#fbbf24;filter:none;}#my-svg [data-look="neo"].node circle{stroke:url(#my-svg-gradient);filter:drop-shadow( 1px 2px 2px rgba(185,185,185,1));}#my-svg [data-look="neo"].node circle .state-start{fill:#000000;}#my-svg [data-look="neo"].icon-shape .icon{fill:url(#my-svg-gradient);filter:drop-shadow( 1px 2px 2px rgba(185,185,185,1));}#my-svg [data-look="neo"].icon-shape .icon-neo path{stroke:url(#my-svg-gradient);filter:drop-shadow( 1px 2px 2px rgba(185,185,185,1));}#my-svg :root{--mermaid-font-family:"trebuchet ms",verdana,arial,sans-serif;}</style><g><marker id="my-svg_flowchart-v2-pointEnd" class="marker flowchart-v2" viewBox="0 0 10 10" refX="5" refY="5" markerUnits="userSpaceOnUse" markerWidth="8" markerHeight="8" orient="auto"><path d="M 0 0 L 10 5 L 0 10 z" class="arrowMarkerPath" style="stroke-width: 1; stroke-dasharray: 1, 0;"/></marker><marker id="my-svg_flowchart-v2-pointStart" class="marker flowchart-v2" viewBox="0 0 10 10" refX="4.5" refY="5" markerUnits="userSpaceOnUse" markerWidth="8" markerHeight="8" orient="auto"><path d="M 0 5 L 10 10 L 10 0 z" class="arrowMarkerPath" style="stroke-width: 1; stroke-dasharray: 1, 0;"/></marker><marker id="my-svg_flowchart-v2-pointEnd-margin" class="marker flowchart-v2" viewBox="0 0 11.5 14" refX="11.5" refY="7" markerUnits="userSpaceOnUse" markerWidth="10.5" markerHeight="14" orient="auto"><path d="M 0 0 L 11.5 7 L 0 14 z" class="arrowMarkerPath" style="stroke-width: 0; stroke-dasharray: 1, 0;"/></marker><marker id="my-svg_flowchart-v2-pointStart-margin" class="marker flowchart-v2" viewBox="0 0 11.5 14" refX="1" refY="7" markerUnits="userSpaceOnUse" markerWidth="11.5" markerHeight="14" orient="auto"><polygon points="0,7 11.5,14 11.5,0" class="arrowMarkerPath" style="stroke-width: 0; stroke-dasharray: 1, 0;"/></marker><marker id="my-svg_flowchart-v2-circleEnd" class="marker flowchart-v2" viewBox="0 0 10 10" refX="11" refY="5" markerUnits="userSpaceOnUse" markerWidth="11" markerHeight="11" orient="auto"><circle cx="5" cy="5" r="5" class="arrowMarkerPath" style="stroke-width: 1; stroke-dasharray: 1, 0;"/></marker><marker id="my-svg_flowchart-v2-circleStart" class="marker flowchart-v2" viewBox="0 0 10 10" refX="-1" refY="5" markerUnits="userSpaceOnUse" markerWidth="11" markerHeight="11" orient="auto"><circle cx="5" cy="5" r="5" class="arrowMarkerPath" style="stroke-width: 1; stroke-dasharray: 1, 0;"/></marker><marker id="my-svg_flowchart-v2-circleEnd-margin" class="marker flowchart-v2" viewBox="0 0 10 10" refY="5" refX="12.25" markerUnits="userSpaceOnUse" markerWidth="14" markerHeight="14" orient="auto"><circle cx="5" cy="5" r="5" class="arrowMarkerPath" style="stroke-width: 0; stroke-dasharray: 1, 0;"/></marker><marker id="my-svg_flowchart-v2-circleStart-margin" class="marker flowchart-v2" viewBox="0 0 10 10" refX="-2" refY="5" markerUnits="userSpaceOnUse" markerWidth="14" markerHeight="14" orient="auto"><circle cx="5" cy="5" r="5" class="arrowMarkerPath" style="stroke-width: 0; stroke-dasharray: 1, 0;"/></marker><marker id="my-svg_flowchart-v2-crossEnd" class="marker cross flowchart-v2" viewBox="0 0 11 11" refX="12" refY="5.2" markerUnits="userSpaceOnUse" markerWidth="11" markerHeight="11" orient="auto"><path d="M 1,1 l 9,9 M 10,1 l -9,9" class="arrowMarkerPath" style="stroke-width: 2; stroke-dasharray: 1, 0;"/></marker><marker id="my-svg_flowchart-v2-crossStart" class="marker cross flowchart-v2" viewBox="0 0 11 11" refX="-1" refY="5.2" markerUnits="userSpaceOnUse" markerWidth="11" markerHeight="11" orient="auto"><path d="M 1,1 l 9,9 M 10,1 l -9,9" class="arrowMarkerPath" style="stroke-width: 2; stroke-dasharray: 1, 0;"/></marker><marker id="my-svg_flowchart-v2-crossEnd-margin" class="marker cross flowchart-v2" viewBox="0 0 15 15" refX="17.7" refY="7.5" markerUnits="userSpaceOnUse" markerWidth="12" markerHeight="12" orient="auto"><path d="M 1,1 L 14,14 M 1,14 L 14,1" class="arrowMarkerPath" style="stroke-width: 2.5;"/></marker><marker id="my-svg_flowchart-v2-crossStart-margin" class="marker cross flowchart-v2" viewBox="0 0 15 15" refX="-3.5" refY="7.5" markerUnits="userSpaceOnUse" markerWidth="12" markerHeight="12" orient="auto"><path d="M 1,1 L 14,14 M 1,14 L 14,1" class="arrowMarkerPath" style="stroke-width: 2.5; stroke-dasharray: 1, 0;"/></marker><g class="root"><g class="clusters"><g class="cluster" id="my-svg-AWS" data-look="classic"><rect style="" x="354.171875" y="97" width="3462.46875" height="1487"/><g class="cluster-label" transform="translate(2057.7734375, 97)"><foreignObject width="55.265625" height="24"><div xmlns="http://www.w3.org/1999/xhtml" style="display: table-cell; white-space: nowrap; line-height: 1.5;"><span class="nodeLabel"><p>☁️ AWS</p></span></div></foreignObject></g></g><g class="cluster" id="my-svg-OBS" data-look="classic"><rect style="" x="2584.0859375" y="823" width="816.09375" height="736"/><g class="cluster-label" transform="translate(2909.9296875, 823)"><foreignObject width="164.40625" height="24"><div xmlns="http://www.w3.org/1999/xhtml" style="display: table-cell; white-space: nowrap; line-height: 1.5;"><span class="nodeLabel"><p>📊 Observability Stack</p></span></div></foreignObject></g></g><g class="cluster" id="my-svg-CDN" data-look="classic"><rect style="" x="3420.1796875" y="823" width="376.4609375" height="736"/><g class="cluster-label" transform="translate(3561.38671875, 823)"><foreignObject width="94.046875" height="24"><div xmlns="http://www.w3.org/1999/xhtml" style="display: table-cell; white-space: nowrap; line-height: 1.5;"><span class="nodeLabel"><p>CDN — Assets</p></span></div></foreignObject></g></g><g class="cluster" id="my-svg-VPC" data-look="classic"><rect style="" x="1188.4375" y="322" width="1375.6484375" height="678"/><g class="cluster-label" transform="translate(1804.49609375, 322)"><foreignObject width="143.53125" height="24"><div xmlns="http://www.w3.org/1999/xhtml" style="display: table-cell; white-space: nowrap; line-height: 1.5;"><span class="nodeLabel"><p>VPC — a20-prod-vpc</p></span></div></foreignObject></g></g><g class="cluster" id="my-svg-PRIV" data-look="classic"><rect style="" x="1208.4375" y="572" width="998.6953125" height="403"/><g class="cluster-label" transform="translate(1642.26171875, 572)"><foreignObject width="131.046875" height="24"><div xmlns="http://www.w3.org/1999/xhtml" style="display: table-cell; white-space: nowrap; line-height: 1.5;"><span class="nodeLabel"><p>🔒 Private Subnet</p></span></div></foreignObject></g></g><g class="cluster" id="my-svg-PUB" data-look="classic"><rect style="" x="2227.1328125" y="347" width="316.953125" height="628"/><g class="cluster-label" transform="translate(2323.328125, 347)"><foreignObject width="124.5625" height="24"><div xmlns="http://www.w3.org/1999/xhtml" style="display: table-cell; white-space: nowrap; line-height: 1.5;"><span class="nodeLabel"><p>📡 Public Subnet</p></span></div></foreignObject></g></g><g class="cluster" id="my-svg-ECS" data-look="classic"><rect style="" x="1253.203125" y="597" width="933.9296875" height="152"/><g class="cluster-label" transform="translate(1579.70703125, 597)"><foreignObject width="280.921875" height="24"><div xmlns="http://www.w3.org/1999/xhtml" style="display: table-cell; white-space: nowrap; line-height: 1.5;"><span class="nodeLabel"><p>ECS Fargate Cluster — a20-prod-cluster</p></span></div></foreignObject></g></g></g><g class="edgePaths"><path d="M3100.9,31.161L2981.685,37.968C2862.47,44.774,2624.04,58.387,2504.825,69.36C2385.609,80.333,2385.609,88.667,2385.609,100.333C2385.609,112,2385.609,127,2385.609,134.5L2385.609,142" id="my-svg-L_INET_R53_0" class="edge-thickness-normal edge-pattern-solid edge-thickness-normal edge-pattern-solid flowchart-link" style=";" data-edge="true" data-et="edge" data-id="L_INET_R53_0" data-points="W3sieCI6MzEwMC45MDAxNDIxNTU2ODA0LCJ5IjozMS4xNjEzMDM1ODY5NzU3NDV9LHsieCI6MjM4NS42MDkzNzUsInkiOjcyfSx7IngiOjIzODUuNjA5Mzc1LCJ5Ijo5N30seyJ4IjoyMzg1LjYwOTM3NSwieSI6MTQ2fV0=" data-look="classic" marker-end="url(#my-svg_flowchart-v2-pointEnd)"/><path d="M319.172,199.058L438.796,213.382C558.419,227.705,797.667,256.353,917.29,276.843C1036.914,297.333,1036.914,309.667,1036.914,320C1036.914,330.333,1036.914,338.667,1036.914,346.333C1036.914,354,1036.914,361,1036.914,364.5L1036.914,368" id="my-svg-L_GH_ECR_0" class="edge-thickness-normal edge-pattern-solid edge-thickness-normal edge-pattern-solid flowchart-link" style=";" data-edge="true" data-et="edge" data-id="L_GH_ECR_0" data-points="W3sieCI6MzE5LjE3MTg3NSwieSI6MTk5LjA1ODEyOTYzNjM4NTc2fSx7IngiOjEwMzYuOTE0MDYyNSwieSI6Mjg1fSx7IngiOjEwMzYuOTE0MDYyNSwieSI6MzIyfSx7IngiOjEwMzYuOTE0MDYyNSwieSI6MzQ3fSx7IngiOjEwMzYuOTE0MDYyNSwieSI6MzcyfV0=" data-look="classic" marker-end="url(#my-svg_flowchart-v2-pointEnd)"/><path d="M2385.609,224L2385.609,234.167C2385.609,244.333,2385.609,264.667,2385.609,281C2385.609,297.333,2385.609,309.667,2385.609,320C2385.609,330.333,2385.609,338.667,2385.609,346.333C2385.609,354,2385.609,361,2385.609,364.5L2385.609,368" id="my-svg-L_R53_ALB_0" class="edge-thickness-normal edge-pattern-solid edge-thickness-normal edge-pattern-solid flowchart-link" style=";" data-edge="true" data-et="edge" data-id="L_R53_ALB_0" data-points="W3sieCI6MjM4NS42MDkzNzUsInkiOjIyNH0seyJ4IjoyMzg1LjYwOTM3NSwieSI6Mjg1fSx7IngiOjIzODUuNjA5Mzc1LCJ5IjozMjJ9LHsieCI6MjM4NS42MDkzNzUsInkiOjM0N30seyJ4IjoyMzg1LjYwOTM3NSwieSI6MzcyfV0=" data-look="classic" marker-end="url(#my-svg_flowchart-v2-pointEnd)"/><path d="M2341.989,498L2337.72,504.167C2333.45,510.333,2324.91,522.667,2320.641,535C2316.371,547.333,2316.371,559.667,2316.371,570C2316.371,580.333,2316.371,588.667,2195.646,603.62C2074.922,618.573,1833.472,640.147,1712.748,650.934L1592.023,661.72" id="my-svg-L_ALB_FE_0" class="edge-thickness-normal edge-pattern-solid edge-thickness-normal edge-pattern-solid flowchart-link" style=";" data-edge="true" data-et="edge" data-id="L_ALB_FE_0" data-points="W3sieCI6MjM0MS45ODkyNTc4MTI1LCJ5Ijo0OTh9LHsieCI6MjMxNi4zNzEwOTM3NSwieSI6NTM1fSx7IngiOjIzMTYuMzcxMDkzNzUsInkiOjU3Mn0seyJ4IjoyMzE2LjM3MTA5Mzc1LCJ5Ijo1OTd9LHsieCI6MTU4OC4wMzkwNjI1LCJ5Ijo2NjIuMDc2MjkzNTY0NjY3OX1d" data-look="classic" marker-end="url(#my-svg_flowchart-v2-pointEnd)"/><path d="M2429.229,498L2433.499,504.167C2437.769,510.333,2446.308,522.667,2450.578,535C2454.848,547.333,2454.848,559.667,2454.848,570C2454.848,580.333,2454.848,588.667,2363.18,603.155C2271.512,617.643,2088.177,638.285,1996.51,648.606L1904.842,658.928" id="my-svg-L_ALB_BE_0" class="edge-thickness-normal edge-pattern-solid edge-thickness-normal edge-pattern-solid flowchart-link" style=";" data-edge="true" data-et="edge" data-id="L_ALB_BE_0" data-points="W3sieCI6MjQyOS4yMjk0OTIxODc1LCJ5Ijo0OTh9LHsieCI6MjQ1NC44NDc2NTYyNSwieSI6NTM1fSx7IngiOjI0NTQuODQ3NjU2MjUsInkiOjU3Mn0seyJ4IjoyNDU0Ljg0NzY1NjI1LCJ5Ijo1OTd9LHsieCI6MTkwMC44NjcxODc1LCJ5Ijo2NTkuMzc1MTgwMTI0NjU0OX1d" data-look="classic" marker-end="url(#my-svg_flowchart-v2-pointEnd)"/><path d="M1658.852,695.945L1612.218,704.788C1565.585,713.63,1472.318,731.315,1425.684,746.324C1379.051,761.333,1379.051,773.667,1379.051,786C1379.051,798.333,1379.051,810.667,1379.051,820.333C1379.051,830,1379.051,837,1379.051,840.5L1379.051,844" id="my-svg-L_BE_RDS_0" class="edge-thickness-normal edge-pattern-solid edge-thickness-normal edge-pattern-solid flowchart-link" style=";" data-edge="true" data-et="edge" data-id="L_BE_RDS_0" data-points="W3sieCI6MTY1OC44NTE1NjI1LCJ5Ijo2OTUuOTQ1MTAxMjExNDE4M30seyJ4IjoxMzc5LjA1MDc4MTI1LCJ5Ijo3NDl9LHsieCI6MTM3OS4wNTA3ODEyNSwieSI6Nzg2fSx7IngiOjEzNzkuMDUwNzgxMjUsInkiOjgyM30seyJ4IjoxMzc5LjA1MDc4MTI1LCJ5Ijo4NDh9XQ==" data-look="classic" marker-end="url(#my-svg_flowchart-v2-pointEnd)"/><path d="M1700.028,724L1693.506,728.167C1686.983,732.333,1673.939,740.667,1667.417,751C1660.895,761.333,1660.895,773.667,1660.895,786C1660.895,798.333,1660.895,810.667,1660.895,820.333C1660.895,830,1660.895,837,1660.895,840.5L1660.895,844" id="my-svg-L_BE_REDIS_0" class="edge-thickness-normal edge-pattern-solid edge-thickness-normal edge-pattern-solid flowchart-link" style=";" data-edge="true" data-et="edge" data-id="L_BE_REDIS_0" data-points="W3sieCI6MTcwMC4wMjc3MDM1MzYxODQyLCJ5Ijo3MjR9LHsieCI6MTY2MC44OTQ1MzEyNSwieSI6NzQ5fSx7IngiOjE2NjAuODk0NTMxMjUsInkiOjc4Nn0seyJ4IjoxNjYwLjg5NDUzMTI1LCJ5Ijo4MjN9LHsieCI6MTY2MC44OTQ1MzEyNSwieSI6ODQ4fV0=" data-look="classic" marker-end="url(#my-svg_flowchart-v2-pointEnd)"/><path d="M1900.867,706.103L1927.002,713.253C1953.137,720.402,2005.406,734.701,2031.541,748.017C2057.676,761.333,2057.676,773.667,2057.676,786C2057.676,798.333,2057.676,810.667,2290.315,828.575C2522.954,846.483,2988.231,869.966,3220.87,881.707L3453.509,893.449" id="my-svg-L_BE_S3_0" class="edge-thickness-normal edge-pattern-solid edge-thickness-normal edge-pattern-solid flowchart-link" style=";" data-edge="true" data-et="edge" data-id="L_BE_S3_0" data-points="W3sieCI6MTkwMC44NjcxODc1LCJ5Ijo3MDYuMTAzMTM0MDk1NDE0OH0seyJ4IjoyMDU3LjY3NTc4MTI1LCJ5Ijo3NDl9LHsieCI6MjA1Ny42NzU3ODEyNSwieSI6Nzg2fSx7IngiOjIwNTcuNjc1NzgxMjUsInkiOjgyM30seyJ4IjozNDU3LjUwMzkwNjI1LCJ5Ijo4OTMuNjUwNDg2MzkzOTQwMX1d" data-look="classic" marker-end="url(#my-svg_flowchart-v2-pointEnd)"/><path d="M3563.496,950L3563.496,954.167C3563.496,958.333,3563.496,966.667,3563.496,975C3563.496,983.333,3563.496,991.667,3563.496,1000C3563.496,1008.333,3563.496,1016.667,3575.087,1056.2C3586.677,1095.733,3609.859,1166.466,3621.449,1201.832L3633.04,1237.199" id="my-svg-L_S3_CF_0" class="edge-thickness-normal edge-pattern-solid edge-thickness-normal edge-pattern-solid flowchart-link" style=";" data-edge="true" data-et="edge" data-id="L_S3_CF_0" data-points="W3sieCI6MzU2My40OTYwOTM3NSwieSI6OTUwfSx7IngiOjM1NjMuNDk2MDkzNzUsInkiOjk3NX0seyJ4IjozNTYzLjQ5NjA5Mzc1LCJ5IjoxMDAwfSx7IngiOjM1NjMuNDk2MDkzNzUsInkiOjEwMjV9LHsieCI6MzYzNC4yODU3NzA3MTYyOTIsInkiOjEyNDF9XQ==" data-look="classic" marker-end="url(#my-svg_flowchart-v2-pointEnd)"/><path d="M3209.978,32.407L3292.396,39.006C3374.814,45.605,3539.651,58.802,3622.07,69.568C3704.488,80.333,3704.488,88.667,3704.488,107.5C3704.488,126.333,3704.488,155.667,3704.488,187C3704.488,218.333,3704.488,251.667,3704.488,274.5C3704.488,297.333,3704.488,309.667,3704.488,320C3704.488,330.333,3704.488,338.667,3704.488,357.5C3704.488,376.333,3704.488,405.667,3704.488,437C3704.488,468.333,3704.488,501.667,3704.488,524.5C3704.488,547.333,3704.488,559.667,3704.488,570C3704.488,580.333,3704.488,588.667,3704.488,605.5C3704.488,622.333,3704.488,647.667,3704.488,673C3704.488,698.333,3704.488,723.667,3704.488,742.5C3704.488,761.333,3704.488,773.667,3704.488,786C3704.488,798.333,3704.488,810.667,3704.488,829.5C3704.488,848.333,3704.488,873.667,3704.488,899C3704.488,924.333,3704.488,949.667,3704.488,966.5C3704.488,983.333,3704.488,991.667,3704.488,1000C3704.488,1008.333,3704.488,1016.667,3697.407,1056.18C3690.326,1095.693,3676.164,1166.385,3669.084,1201.732L3662.003,1237.078" id="my-svg-L_INET_CF_0" class="edge-thickness-normal edge-pattern-solid edge-thickness-normal edge-pattern-solid flowchart-link" style=";" data-edge="true" data-et="edge" data-id="L_INET_CF_0" data-points="W3sieCI6MzIwOS45Nzc2MDQ3ODQzMjg0LCJ5IjozMi40MDcyNzgwMDgzMTE3Mn0seyJ4IjozNzA0LjQ4ODI4MTI1LCJ5Ijo3Mn0seyJ4IjozNzA0LjQ4ODI4MTI1LCJ5Ijo5N30seyJ4IjozNzA0LjQ4ODI4MTI1LCJ5IjoxODV9LHsieCI6MzcwNC40ODgyODEyNSwieSI6Mjg1fSx7IngiOjM3MDQuNDg4MjgxMjUsInkiOjMyMn0seyJ4IjozNzA0LjQ4ODI4MTI1LCJ5IjozNDd9LHsieCI6MzcwNC40ODgyODEyNSwieSI6NDM1fSx7IngiOjM3MDQuNDg4MjgxMjUsInkiOjUzNX0seyJ4IjozNzA0LjQ4ODI4MTI1LCJ5Ijo1NzJ9LHsieCI6MzcwNC40ODgyODEyNSwieSI6NTk3fSx7IngiOjM3MDQuNDg4MjgxMjUsInkiOjY3M30seyJ4IjozNzA0LjQ4ODI4MTI1LCJ5Ijo3NDl9LHsieCI6MzcwNC40ODgyODEyNSwieSI6Nzg2fSx7IngiOjM3MDQuNDg4MjgxMjUsInkiOjgyM30seyJ4IjozNzA0LjQ4ODI4MTI1LCJ5Ijo4OTl9LHsieCI6MzcwNC40ODgyODEyNSwieSI6OTc1fSx7IngiOjM3MDQuNDg4MjgxMjUsInkiOjEwMDB9LHsieCI6MzcwNC40ODgyODEyNSwieSI6MTAyNX0seyJ4IjozNjYxLjIxNjg2MjcxMDY3NDQsInkiOjEyNDF9XQ==" data-look="classic" marker-end="url(#my-svg_flowchart-v2-pointEnd)"/><path d="M1713.449,724L1708.023,728.167C1702.597,732.333,1691.746,740.667,1686.32,751C1680.895,761.333,1680.895,773.667,1680.895,786C1680.895,798.333,1680.895,810.667,1782.93,827.837C1884.966,845.008,2089.038,867.016,2191.073,878.02L2293.109,889.024" id="my-svg-L_BE_NAT_0" class="edge-thickness-normal edge-pattern-solid edge-thickness-normal edge-pattern-solid flowchart-link" style=";" data-edge="true" data-et="edge" data-id="L_BE_NAT_0" data-points="W3sieCI6MTcxMy40NDg3NTYxNjc3NjMxLCJ5Ijo3MjR9LHsieCI6MTY4MC44OTQ1MzEyNSwieSI6NzQ5fSx7IngiOjE2ODAuODk0NTMxMjUsInkiOjc4Nn0seyJ4IjoxNjgwLjg5NDUzMTI1LCJ5Ijo4MjN9LHsieCI6MjI5Ny4wODU5Mzc1LCJ5Ijo4ODkuNDUzMTg2NDA2MjkyNH1d" data-look="classic" marker-end="url(#my-svg_flowchart-v2-pointEnd)"/><path d="M1153.438,480.466L1176.732,489.555C1200.026,498.644,1246.615,516.822,1269.909,532.078C1293.203,547.333,1293.203,559.667,1293.203,570C1293.203,580.333,1293.203,588.667,1302.055,596.731C1310.906,604.796,1328.609,612.592,1337.46,616.49L1346.311,620.388" id="my-svg-L_ECR_FE_0" class="edge-thickness-normal edge-pattern-dotted edge-thickness-normal edge-pattern-solid flowchart-link" style=";" data-edge="true" data-et="edge" data-id="L_ECR_FE_0" data-points="W3sieCI6MTE1My40Mzc1LCJ5Ijo0ODAuNDY1NjMwMjM5MjkyOH0seyJ4IjoxMjkzLjIwMzEyNSwieSI6NTM1fSx7IngiOjEyOTMuMjAzMTI1LCJ5Ijo1NzJ9LHsieCI6MTI5My4yMDMxMjUsInkiOjU5N30seyJ4IjoxMzQ5Ljk3MjI0NTA2NTc4OTYsInkiOjYyMn1d" data-look="classic" marker-end="url(#my-svg_flowchart-v2-pointEnd)"/><path d="M1153.438,453.633L1238.243,467.194C1323.049,480.755,1492.661,507.878,1577.467,527.606C1662.273,547.333,1662.273,559.667,1662.273,570C1662.273,580.333,1662.273,588.667,1668.16,596.638C1674.047,604.61,1685.82,612.219,1691.707,616.024L1697.594,619.829" id="my-svg-L_ECR_BE_0" class="edge-thickness-normal edge-pattern-dotted edge-thickness-normal edge-pattern-solid flowchart-link" style=";" data-edge="true" data-et="edge" data-id="L_ECR_BE_0" data-points="W3sieCI6MTE1My40Mzc1LCJ5Ijo0NTMuNjMzMDM2MDA0Mjk3NTR9LHsieCI6MTY2Mi4yNzM0Mzc1LCJ5Ijo1MzV9LHsieCI6MTY2Mi4yNzM0Mzc1LCJ5Ijo1NzJ9LHsieCI6MTY2Mi4yNzM0Mzc1LCJ5Ijo1OTd9LHsieCI6MTcwMC45NTMwMjIyMDM5NDczLCJ5Ijo2MjJ9XQ==" data-look="classic" marker-end="url(#my-svg_flowchart-v2-pointEnd)"/><path d="M1153.438,446.485L1303.115,461.237C1452.792,475.99,1752.146,505.495,1901.823,526.414C2051.5,547.333,2051.5,559.667,2051.5,570C2051.5,580.333,2051.5,588.667,2051.5,596.333C2051.5,604,2051.5,611,2051.5,614.5L2051.5,618" id="my-svg-L_ECR_TASKS_0" class="edge-thickness-normal edge-pattern-dotted edge-thickness-normal edge-pattern-solid flowchart-link" style=";" data-edge="true" data-et="edge" data-id="L_ECR_TASKS_0" data-points="W3sieCI6MTE1My40Mzc1LCJ5Ijo0NDYuNDg0ODI2Nzg0MzI1NX0seyJ4IjoyMDUxLjUsInkiOjUzNX0seyJ4IjoyMDUxLjUsInkiOjU3Mn0seyJ4IjoyMDUxLjUsInkiOjU5N30seyJ4IjoyMDUxLjUsInkiOjYyMn1d" data-look="classic" marker-end="url(#my-svg_flowchart-v2-pointEnd)"/><path d="M870.391,446.259L1026.76,461.049C1183.13,475.839,1495.87,505.42,1652.24,526.376C1808.609,547.333,1808.609,559.667,1808.609,570C1808.609,580.333,1808.609,588.667,1807.269,596.376C1805.929,604.086,1803.248,611.172,1801.908,614.716L1800.567,618.259" id="my-svg-L_SM_BE_0" class="edge-thickness-normal edge-pattern-dotted edge-thickness-normal edge-pattern-solid flowchart-link" style=";" data-edge="true" data-et="edge" data-id="L_SM_BE_0" data-points="W3sieCI6ODcwLjM5MDYyNSwieSI6NDQ2LjI1ODU3MTc2NjM3NTA0fSx7IngiOjE4MDguNjA5Mzc1LCJ5Ijo1MzV9LHsieCI6MTgwOC42MDkzNzUsInkiOjU3Mn0seyJ4IjoxODA4LjYwOTM3NSwieSI6NTk3fSx7IngiOjE3OTkuMTUyMTM4MTU3ODk0OCwieSI6NjIyfV0=" data-look="classic" marker-end="url(#my-svg_flowchart-v2-pointEnd)"/><path d="M870.391,453.362L958.592,466.968C1046.794,480.575,1223.198,507.787,1311.4,527.56C1399.602,547.333,1399.602,559.667,1399.602,570C1399.602,580.333,1399.602,588.667,1402.792,596.497C1405.983,604.328,1412.363,611.656,1415.554,615.32L1418.744,618.983" id="my-svg-L_SM_FE_0" class="edge-thickness-normal edge-pattern-dotted edge-thickness-normal edge-pattern-solid flowchart-link" style=";" data-edge="true" data-et="edge" data-id="L_SM_FE_0" data-points="W3sieCI6ODcwLjM5MDYyNSwieSI6NDUzLjM2MjE1NzI3NjI4ODAzfSx7IngiOjEzOTkuNjAxNTYyNSwieSI6NTM1fSx7IngiOjEzOTkuNjAxNTYyNSwieSI6NTcyfSx7IngiOjEzOTkuNjAxNTYyNSwieSI6NTk3fSx7IngiOjE0MjEuMzcxMTk2NTQ2MDUyNywieSI6NjIyfV0=" data-look="classic" marker-end="url(#my-svg_flowchart-v2-pointEnd)"/><path d="M1779.859,724L1779.859,728.167C1779.859,732.333,1779.859,740.667,1779.859,751C1779.859,761.333,1779.859,773.667,1779.859,786C1779.859,798.333,1779.859,810.667,1924.042,828.259C2068.226,845.852,2356.592,868.704,2500.775,880.13L2644.958,891.556" id="my-svg-L_BE_PROM_0" class="edge-thickness-normal edge-pattern-solid edge-thickness-normal edge-pattern-solid flowchart-link" style=";" data-edge="true" data-et="edge" data-id="L_BE_PROM_0" data-points="W3sieCI6MTc3OS44NTkzNzUsInkiOjcyNH0seyJ4IjoxNzc5Ljg1OTM3NSwieSI6NzQ5fSx7IngiOjE3NzkuODU5Mzc1LCJ5Ijo3ODZ9LHsieCI6MTc3OS44NTkzNzUsInkiOjgyM30seyJ4IjoyNjQ4Ljk0NTMxMjUsInkiOjg5MS44NzIxMzY1OTYxNzQ1fV0=" data-look="classic" marker-end="url(#my-svg_flowchart-v2-pointEnd)"/><path d="M2738.891,938L2738.891,944.167C2738.891,950.333,2738.891,962.667,2738.891,973C2738.891,983.333,2738.891,991.667,2738.891,1000C2738.891,1008.333,2738.891,1016.667,2738.891,1058.167C2738.891,1099.667,2738.891,1174.333,2738.891,1211.667L2738.891,1249" id="my-svg-L_PROM_GRAFANA_0" class="edge-thickness-normal edge-pattern-solid edge-thickness-normal edge-pattern-solid flowchart-link" style=";" data-edge="true" data-et="edge" data-id="L_PROM_GRAFANA_0" data-points="W3sieCI6MjczOC44OTA2MjUsInkiOjkzOH0seyJ4IjoyNzM4Ljg5MDYyNSwieSI6OTc1fSx7IngiOjI3MzguODkwNjI1LCJ5IjoxMDAwfSx7IngiOjI3MzguODkwNjI1LCJ5IjoxMDI1fSx7IngiOjI3MzguODkwNjI1LCJ5IjoxMjUzfV0=" data-look="classic" marker-end="url(#my-svg_flowchart-v2-pointEnd)"/><path d="M1845.955,724L1851.355,728.167C1856.755,732.333,1867.555,740.667,1872.955,751C1878.355,761.333,1878.355,773.667,1878.355,786C1878.355,798.333,1878.355,810.667,2044.437,828.225C2210.519,845.783,2542.682,868.567,2708.764,879.958L2874.845,891.35" id="my-svg-L_BE_LOKI_0" class="edge-thickness-normal edge-pattern-solid edge-thickness-normal edge-pattern-solid flowchart-link" style=";" data-edge="true" data-et="edge" data-id="L_BE_LOKI_0" data-points="W3sieCI6MTg0NS45NTU0Mzc5MTExODQyLCJ5Ijo3MjR9LHsieCI6MTg3OC4zNTU0Njg3NSwieSI6NzQ5fSx7IngiOjE4NzguMzU1NDY4NzUsInkiOjc4Nn0seyJ4IjoxODc4LjM1NTQ2ODc1LCJ5Ijo4MjN9LHsieCI6Mjg3OC44MzU5Mzc1LCJ5Ijo4OTEuNjIzODA0NDM3MTExNX1d" data-look="classic" marker-end="url(#my-svg_flowchart-v2-pointEnd)"/><path d="M1889.023,724L1897.942,728.167C1906.861,732.333,1924.698,740.667,1933.617,751C1942.535,761.333,1942.535,773.667,1942.535,786C1942.535,798.333,1942.535,810.667,2142.099,828.393C2341.664,846.12,2740.792,869.24,2940.356,880.8L3139.921,892.36" id="my-svg-L_BE_LF_0" class="edge-thickness-normal edge-pattern-dotted edge-thickness-normal edge-pattern-solid flowchart-link" style=";" data-edge="true" data-et="edge" data-id="L_BE_LF_0" data-points="W3sieCI6MTg4OS4wMjMzODYxMDE5NzM4LCJ5Ijo3MjR9LHsieCI6MTk0Mi41MzUxNTYyNSwieSI6NzQ5fSx7IngiOjE5NDIuNTM1MTU2MjUsInkiOjc4Nn0seyJ4IjoxOTQyLjUzNTE1NjI1LCJ5Ijo4MjN9LHsieCI6MzE0My45MTQwNjI1LCJ5Ijo4OTIuNTkxNDQ5MTk5ODUxMX1d" data-look="classic" marker-end="url(#my-svg_flowchart-v2-pointEnd)"/><path d="M2385.609,938L2385.609,944.167C2385.609,950.333,2385.609,962.667,2385.609,973C2385.609,983.333,2385.609,991.667,2385.609,1000C2385.609,1008.333,2385.609,1016.667,2041.865,1062.138C1698.121,1107.609,1010.632,1190.218,666.888,1231.523L323.143,1272.827" id="my-svg-L_NAT_EXT_0" class="edge-thickness-normal edge-pattern-solid edge-thickness-normal edge-pattern-solid flowchart-link" style=";" data-edge="true" data-et="edge" data-id="L_NAT_EXT_0" data-points="W3sieCI6MjM4NS42MDkzNzUsInkiOjkzOH0seyJ4IjoyMzg1LjYwOTM3NSwieSI6OTc1fSx7IngiOjIzODUuNjA5Mzc1LCJ5IjoxMDAwfSx7IngiOjIzODUuNjA5Mzc1LCJ5IjoxMDI1fSx7IngiOjMxOS4xNzE4NzUsInkiOjEyNzMuMzA0Njc3MjU0MzMyNX1d" data-look="classic" marker-end="url(#my-svg_flowchart-v2-pointEnd)"/><path d="M582.328,444.433L736.871,459.527C891.414,474.622,1200.5,504.811,1355.043,526.072C1509.586,547.333,1509.586,559.667,1509.586,569.333C1509.586,579,1509.586,586,1509.586,589.5L1509.586,593" id="my-svg-L_CW_ECS_0" class="edge-thickness-normal edge-pattern-dotted edge-thickness-normal edge-pattern-solid flowchart-link" style=";" data-edge="true" data-et="edge" data-id="L_CW_ECS_0" data-points="W3sieCI6NTgyLjMyODEyNSwieSI6NDQ0LjQzMjk2ODg0NDE5MDQ0fSx7IngiOjE1MDkuNTg1OTM3NSwieSI6NTM1fSx7IngiOjE1MDkuNTg1OTM3NSwieSI6NTcyfSx7IngiOjE1MDkuNTg1OTM3NSwieSI6NTk3fSx7IngiOjE0OTUuMTc2NTAwODIyMzY4MywieSI6NjIyfV0=" data-look="classic" marker-end="url(#my-svg_flowchart-v2-pointEnd)"/><path d="M319.172,193.368L533.445,208.64C747.719,223.912,1176.266,254.456,1390.539,275.895C1604.813,297.333,1604.813,309.667,1604.813,320C1604.813,330.333,1604.813,338.667,1604.813,357.5C1604.813,376.333,1604.813,405.667,1604.813,437C1604.813,468.333,1604.813,501.667,1604.813,524.5C1604.813,547.333,1604.813,559.667,1604.813,569.333C1604.813,579,1604.813,586,1604.813,589.5L1604.813,593" id="my-svg-L_GH_ECS_0" class="edge-thickness-normal edge-pattern-solid edge-thickness-normal edge-pattern-solid flowchart-link" style=";" data-edge="true" data-et="edge" data-id="L_GH_ECS_0" data-points="W3sieCI6MzE5LjE3MTg3NSwieSI6MTkzLjM2Nzk0OTIxNzY2MjQ0fSx7IngiOjE2MDQuODEyNSwieSI6Mjg1fSx7IngiOjE2MDQuODEyNSwieSI6MzIyfSx7IngiOjE2MDQuODEyNSwieSI6MzQ3fSx7IngiOjE2MDQuODEyNSwieSI6NDM1fSx7IngiOjE2MDQuODEyNSwieSI6NTM1fSx7IngiOjE2MDQuODEyNSwieSI6NTcyfSx7IngiOjE2MDQuODEyNSwieSI6NTk3fSx7IngiOjE1NTkuMDc4NTM2MTg0MjEwNCwieSI6NjIyfV0=" data-look="classic" marker-end="url(#my-svg_flowchart-v2-pointEnd)"/></g><g class="edgeLabels"><g class="edgeLabel"><g class="label" data-id="L_INET_R53_0" transform="translate(0, 0)"><foreignObject width="0" height="0"><div xmlns="http://www.w3.org/1999/xhtml" class="labelBkg" style="display: table-cell; white-space: nowrap; line-height: 1.5; max-width: 200px; text-align: center;"><span class="edgeLabel"></span></div></foreignObject></g></g><g class="edgeLabel" transform="translate(1036.9140625, 285)"><g class="label" data-id="L_GH_ECR_0" transform="translate(-43.59375, -12)"><foreignObject width="87.1875" height="24"><div xmlns="http://www.w3.org/1999/xhtml" class="labelBkg" style="display: table-cell; white-space: nowrap; line-height: 1.5; max-width: 200px; text-align: center;"><span class="edgeLabel"><p>push images</p></span></div></foreignObject></g></g><g class="edgeLabel"><g class="label" data-id="L_R53_ALB_0" transform="translate(0, 0)"><foreignObject width="0" height="0"><div xmlns="http://www.w3.org/1999/xhtml" class="labelBkg" style="display: table-cell; white-space: nowrap; line-height: 1.5; max-width: 200px; text-align: center;"><span class="edgeLabel"></span></div></foreignObject></g></g><g class="edgeLabel"><g class="label" data-id="L_ALB_FE_0" transform="translate(0, 0)"><foreignObject width="0" height="0"><div xmlns="http://www.w3.org/1999/xhtml" class="labelBkg" style="display: table-cell; white-space: nowrap; line-height: 1.5; max-width: 200px; text-align: center;"><span class="edgeLabel"></span></div></foreignObject></g></g><g class="edgeLabel"><g class="label" data-id="L_ALB_BE_0" transform="translate(0, 0)"><foreignObject width="0" height="0"><div xmlns="http://www.w3.org/1999/xhtml" class="labelBkg" style="display: table-cell; white-space: nowrap; line-height: 1.5; max-width: 200px; text-align: center;"><span class="edgeLabel"></span></div></foreignObject></g></g><g class="edgeLabel"><g class="label" data-id="L_BE_RDS_0" transform="translate(0, 0)"><foreignObject width="0" height="0"><div xmlns="http://www.w3.org/1999/xhtml" class="labelBkg" style="display: table-cell; white-space: nowrap; line-height: 1.5; max-width: 200px; text-align: center;"><span class="edgeLabel"></span></div></foreignObject></g></g><g class="edgeLabel"><g class="label" data-id="L_BE_REDIS_0" transform="translate(0, 0)"><foreignObject width="0" height="0"><div xmlns="http://www.w3.org/1999/xhtml" class="labelBkg" style="display: table-cell; white-space: nowrap; line-height: 1.5; max-width: 200px; text-align: center;"><span class="edgeLabel"></span></div></foreignObject></g></g><g class="edgeLabel" transform="translate(2057.67578125, 786)"><g class="label" data-id="L_BE_S3_0" transform="translate(-50.9609375, -12)"><foreignObject width="101.921875" height="24"><div xmlns="http://www.w3.org/1999/xhtml" class="labelBkg" style="display: table-cell; white-space: nowrap; line-height: 1.5; max-width: 200px; text-align: center;"><span class="edgeLabel"><p>presigned URL</p></span></div></foreignObject></g></g><g class="edgeLabel"><g class="label" data-id="L_S3_CF_0" transform="translate(0, 0)"><foreignObject width="0" height="0"><div xmlns="http://www.w3.org/1999/xhtml" class="labelBkg" style="display: table-cell; white-space: nowrap; line-height: 1.5; max-width: 200px; text-align: center;"><span class="edgeLabel"></span></div></foreignObject></g></g><g class="edgeLabel" transform="translate(3704.48828125, 535)"><g class="label" data-id="L_INET_CF_0" transform="translate(-38.6640625, -12)"><foreignObject width="77.328125" height="24"><div xmlns="http://www.w3.org/1999/xhtml" class="labelBkg" style="display: table-cell; white-space: nowrap; line-height: 1.5; max-width: 200px; text-align: center;"><span class="edgeLabel"><p>CDN assets</p></span></div></foreignObject></g></g><g class="edgeLabel"><g class="label" data-id="L_BE_NAT_0" transform="translate(0, 0)"><foreignObject width="0" height="0"><div xmlns="http://www.w3.org/1999/xhtml" class="labelBkg" style="display: table-cell; white-space: nowrap; line-height: 1.5; max-width: 200px; text-align: center;"><span class="edgeLabel"></span></div></foreignObject></g></g><g class="edgeLabel" transform="translate(1293.203125, 535)"><g class="label" data-id="L_ECR_FE_0" transform="translate(-37.4609375, -12)"><foreignObject width="74.921875" height="24"><div xmlns="http://www.w3.org/1999/xhtml" class="labelBkg" style="display: table-cell; white-space: nowrap; line-height: 1.5; max-width: 200px; text-align: center;"><span class="edgeLabel"><p>pull image</p></span></div></foreignObject></g></g><g class="edgeLabel" transform="translate(1662.2734375, 535)"><g class="label" data-id="L_ECR_BE_0" transform="translate(-37.4609375, -12)"><foreignObject width="74.921875" height="24"><div xmlns="http://www.w3.org/1999/xhtml" class="labelBkg" style="display: table-cell; white-space: nowrap; line-height: 1.5; max-width: 200px; text-align: center;"><span class="edgeLabel"><p>pull image</p></span></div></foreignObject></g></g><g class="edgeLabel" transform="translate(2051.5, 535)"><g class="label" data-id="L_ECR_TASKS_0" transform="translate(-37.4609375, -12)"><foreignObject width="74.921875" height="24"><div xmlns="http://www.w3.org/1999/xhtml" class="labelBkg" style="display: table-cell; white-space: nowrap; line-height: 1.5; max-width: 200px; text-align: center;"><span class="edgeLabel"><p>pull image</p></span></div></foreignObject></g></g><g class="edgeLabel" transform="translate(1808.609375, 535)"><g class="label" data-id="L_SM_BE_0" transform="translate(-48.9375, -12)"><foreignObject width="97.875" height="24"><div xmlns="http://www.w3.org/1999/xhtml" class="labelBkg" style="display: table-cell; white-space: nowrap; line-height: 1.5; max-width: 200px; text-align: center;"><span class="edgeLabel"><p>inject secrets</p></span></div></foreignObject></g></g><g class="edgeLabel" transform="translate(1399.6015625, 535)"><g class="label" data-id="L_SM_FE_0" transform="translate(-48.9375, -12)"><foreignObject width="97.875" height="24"><div xmlns="http://www.w3.org/1999/xhtml" class="labelBkg" style="display: table-cell; white-space: nowrap; line-height: 1.5; max-width: 200px; text-align: center;"><span class="edgeLabel"><p>inject secrets</p></span></div></foreignObject></g></g><g class="edgeLabel"><g class="label" data-id="L_BE_PROM_0" transform="translate(0, 0)"><foreignObject width="0" height="0"><div xmlns="http://www.w3.org/1999/xhtml" class="labelBkg" style="display: table-cell; white-space: nowrap; line-height: 1.5; max-width: 200px; text-align: center;"><span class="edgeLabel"></span></div></foreignObject></g></g><g class="edgeLabel"><g class="label" data-id="L_PROM_GRAFANA_0" transform="translate(0, 0)"><foreignObject width="0" height="0"><div xmlns="http://www.w3.org/1999/xhtml" class="labelBkg" style="display: table-cell; white-space: nowrap; line-height: 1.5; max-width: 200px; text-align: center;"><span class="edgeLabel"></span></div></foreignObject></g></g><g class="edgeLabel"><g class="label" data-id="L_BE_LOKI_0" transform="translate(0, 0)"><foreignObject width="0" height="0"><div xmlns="http://www.w3.org/1999/xhtml" class="labelBkg" style="display: table-cell; white-space: nowrap; line-height: 1.5; max-width: 200px; text-align: center;"><span class="edgeLabel"></span></div></foreignObject></g></g><g class="edgeLabel" transform="translate(1942.53515625, 786)"><g class="label" data-id="L_BE_LF_0" transform="translate(-44.1796875, -12)"><foreignObject width="88.359375" height="24"><div xmlns="http://www.w3.org/1999/xhtml" class="labelBkg" style="display: table-cell; white-space: nowrap; line-height: 1.5; max-width: 200px; text-align: center;"><span class="edgeLabel"><p>async traces</p></span></div></foreignObject></g></g><g class="edgeLabel"><g class="label" data-id="L_NAT_EXT_0" transform="translate(0, 0)"><foreignObject width="0" height="0"><div xmlns="http://www.w3.org/1999/xhtml" class="labelBkg" style="display: table-cell; white-space: nowrap; line-height: 1.5; max-width: 200px; text-align: center;"><span class="edgeLabel"></span></div></foreignObject></g></g><g class="edgeLabel" transform="translate(1076.81021, 492.72997)"><g class="label" data-id="L_CW_ECS_0" transform="translate(-41.046875, -12)"><foreignObject width="82.09375" height="24"><div xmlns="http://www.w3.org/1999/xhtml" class="labelBkg" style="display: table-cell; white-space: nowrap; line-height: 1.5; max-width: 200px; text-align: center;"><span class="edgeLabel"><p>log streams</p></span></div></foreignObject></g></g><g class="edgeLabel" transform="translate(1117.59746, 250.2745)"><g class="label" data-id="L_GH_ECS_0" transform="translate(-51.5234375, -12)"><foreignObject width="103.046875" height="24"><div xmlns="http://www.w3.org/1999/xhtml" class="labelBkg" style="display: table-cell; white-space: nowrap; line-height: 1.5; max-width: 200px; text-align: center;"><span class="edgeLabel"><p>deploy service</p></span></div></foreignObject></g></g></g><g class="nodes"><g class="root" transform="translate(0, 1042)"><g class="clusters"><g class="cluster" id="my-svg-EXT" data-look="classic"><rect style="" x="8" y="8" width="311.171875" height="484"/><g class="cluster-label" transform="translate(66.5078125, 8)"><foreignObject width="194.15625" height="24"><div xmlns="http://www.w3.org/1999/xhtml" style="display: table-cell; white-space: nowrap; line-height: 1.5;"><span class="nodeLabel"><p>🔌 External APIs — via NAT</p></span></div></foreignObject></g></g></g><g class="edgePaths"/><g class="edgeLabels"/><g class="nodes"><g class="node default" id="my-svg-flowchart-OPENAI-22" data-look="classic" transform="translate(163.5859375, 70)"><rect class="basic label-container" style="" x="-68.90625" y="-27" width="137.8125" height="54"/><g class="label" style="" transform="translate(-38.90625, -12)"><rect/><foreignObject width="77.8125" height="24"><div xmlns="http://www.w3.org/1999/xhtml" style="display: table-cell; white-space: nowrap; line-height: 1.5; max-width: 200px; text-align: center;"><span class="nodeLabel"><p>OpenAI API</p></span></div></foreignObject></g></g><g class="node default" id="my-svg-flowchart-GEMINI-23" data-look="classic" transform="translate(163.5859375, 174)"><rect class="basic label-container" style="" x="-68.7265625" y="-27" width="137.453125" height="54"/><g class="label" style="" transform="translate(-38.7265625, -12)"><rect/><foreignObject width="77.453125" height="24"><div xmlns="http://www.w3.org/1999/xhtml" style="display: table-cell; white-space: nowrap; line-height: 1.5; max-width: 200px; text-align: center;"><span class="nodeLabel"><p>Gemini API</p></span></div></foreignObject></g></g><g class="node default" id="my-svg-flowchart-ANTHROPIC-24" data-look="classic" transform="translate(163.5859375, 278)"><rect class="basic label-container" style="" x="-78.109375" y="-27" width="156.21875" height="54"/><g class="label" style="" transform="translate(-48.109375, -12)"><rect/><foreignObject width="96.21875" height="24"><div xmlns="http://www.w3.org/1999/xhtml" style="display: table-cell; white-space: nowrap; line-height: 1.5; max-width: 200px; text-align: center;"><span class="nodeLabel"><p>Anthropic API</p></span></div></foreignObject></g></g><g class="node default" id="my-svg-flowchart-VLLM_S-25" data-look="classic" transform="translate(163.5859375, 406)"><rect class="basic label-container" style="" x="-118.0859375" y="-51" width="236.171875" height="102"/><g class="label" style="" transform="translate(-88.0859375, -36)"><rect/><foreignObject width="176.171875" height="72"><div xmlns="http://www.w3.org/1999/xhtml" style="display: table-cell; white-space: nowrap; line-height: 1.5; max-width: 200px; text-align: center;"><span class="nodeLabel"><p>vLLM Server<br />Qwen3.5-0.8B + 4B LoRA<br />(Cloudflare Tunnel)</p></span></div></foreignObject></g></g></g></g><g class="node default" id="my-svg-flowchart-INET-0" data-look="classic" transform="translate(3155.0625, 27.5)"><g class="basic label-container outer-path"><path d="M-35.421875 -19.5 C-20.606720822869775 -19.5, -5.791566645739547 -19.5, 35.421875 -19.5 C35.421875 -19.5, 35.421875 -19.5, 35.421875 -19.5 C35.79090531100048 -19.488165916200142, 36.15993562200095 -19.47633183240028, 36.6712442896239 -19.45993515863156 C37.09648230366384 -19.41891295884066, 37.52172031770378 -19.377890759049762, 37.915479652847864 -19.3399052695533 C38.361210665212 -19.26784293616989, 38.806941677576134 -19.19578060278649, 39.14946825967676 -19.140403561325776 C39.58550409935362 -19.040881226319303, 40.021539939030475 -18.94135889131283, 40.36813938623539 -18.862249829261074 C40.691438855972514 -18.766296243676646, 41.01473832570963 -18.670342658092213, 41.566485251460605 -18.50658706670804 C41.83603424091017 -18.407390546907052, 42.10558323035975 -18.308194027106065, 42.7395815951478 -18.074876768247425 C43.152530137284785 -17.89207669832665, 43.565478679421766 -17.709276628405878, 43.88260791279238 -17.568892924097174 C44.29620667682945 -17.353118713821686, 44.70980544086652 -17.137344503546203, 44.99086726407678 -16.990714730406097 C45.37268327084374 -16.759255623304057, 45.754499277610684 -16.527796516202017, 46.0598055736057 -16.342718045390892 C46.33897273753397 -16.147983116786282, 46.618139901462236 -15.953248188181675, 47.08503034457871 -15.627565626425154 C47.32730036314382 -15.434361733695436, 47.56957038170892 -15.241157840965718, 48.062328708501866 -14.848196188198123 C48.324254801404756 -14.610321840808375, 48.58618089430765 -14.372447493418626, 48.98768473676799 -14.007812326905688 C49.218556098391154 -13.769418691138467, 49.44942746001432 -13.531025055371247, 49.85729594296865 -13.10986736009568 C50.020317918872905 -12.918372470985329, 50.18333989477716 -12.726877581874975, 50.66758890812658 -12.158051136245305 C50.88330323337533 -11.869013592391292, 51.09901755862408 -11.57997604853728, 51.415233964640635 -11.156274872382312 C51.58395544175963 -10.89707337546721, 51.75267691887861 -10.63787187855211, 52.09715887860425 -10.108655082055241 C52.23435291355868 -9.865053180591172, 52.37154694851311 -9.6214512791271, 52.710561474273504 -9.019496659696287 C52.82388422205754 -8.784179549204358, 52.93720696984158 -8.54886243871243, 53.25292114880834 -7.893275190886684 C53.425819693716825 -7.466212442196768, 53.59871823862531 -7.039149693506852, 53.722009229970325 -6.734618561215508 C53.82379769872127 -6.428047911127734, 53.92558616747222 -6.121477261039962, 54.11589813421488 -5.548287939305138 C54.197532113950174 -5.2369821941838275, 54.279166093685475 -4.925676449062518, 54.43296928754556 -4.339158212148133 C54.4846031579977 -4.074029200198791, 54.53623702844983 -3.80890018824945, 54.671919776581774 -3.1121979531509023 C54.719709406810665 -2.741551018225527, 54.767499037039556 -2.370904083300152, 54.83176770250937 -1.872449005199798 C54.85287514886362 -1.5436834906083619, 54.87398259521786 -1.2149179760169257, 54.91185621591342 -0.6250057626472757 C54.91185621591342 -0.33642057510782103, 54.91185621591342 -0.04783538756836636, 54.91185621591342 0.625005762647271 C54.88751899980603 1.0040775481670339, 54.86318178369865 1.3831493336867966, 54.83176770250937 1.8724490051997846 C54.78199674244791 2.2584627430487374, 54.73222578238644 2.6444764808976897, 54.671919776581774 3.1121979531508885 C54.61373358430663 3.4109717528276575, 54.55554739203149 3.7097455525044265, 54.43296928754556 4.339158212148129 C54.366863015541036 4.591250077940915, 54.3007567435365 4.843341943733701, 54.11589813421489 5.548287939305125 C53.97466913153812 5.973647193581765, 53.833440128861355 6.3990064478584054, 53.722009229970325 6.734618561215495 C53.551813065816404 7.155006377194672, 53.381616901662476 7.5753941931738495, 53.25292114880834 7.893275190886679 C53.13869820946135 8.130461568420092, 53.02447527011436 8.367647945953504, 52.710561474273504 9.019496659696284 C52.50567837674638 9.383287346019006, 52.30079527921925 9.74707803234173, 52.09715887860425 10.108655082055236 C51.90420971015034 10.405076818906833, 51.711260541696426 10.70149855575843, 51.41523396464064 11.156274872382301 C51.18139515121665 11.469597579216305, 50.947556337792655 11.78292028605031, 50.66758890812658 12.158051136245302 C50.4945153394377 12.361353198192313, 50.321441770748805 12.564655260139327, 49.85729594296866 13.10986736009567 C49.61296411628611 13.36216003116144, 49.36863228960355 13.614452702227213, 48.98768473676799 14.007812326905684 C48.73556592364244 14.236779962288054, 48.4834471105169 14.465747597670422, 48.06232870850189 14.848196188198111 C47.7253225925561 15.116949597555493, 47.38831647661031 15.385703006912877, 47.08503034457871 15.627565626425152 C46.87527288096549 15.773883352787484, 46.665515417352275 15.920201079149814, 46.05980557360571 16.34271804539089 C45.82771811563641 16.48341082630917, 45.5956306576671 16.624103607227458, 44.99086726407678 16.990714730406093 C44.702209090702674 17.141307514560985, 44.41355091732856 17.291900298715873, 43.88260791279239 17.56889292409717 C43.52011505201669 17.72935776059391, 43.157622191241 17.889822597090646, 42.739581595147804 18.07487676824742 C42.37000373585852 18.21088483680616, 42.000425876569224 18.3468929053649, 41.56648525146062 18.506587066708033 C41.16845680440101 18.624719820501372, 40.770428357341395 18.742852574294712, 40.36813938623541 18.86224982926107 C40.103059445138136 18.922752596008248, 39.83797950404086 18.983255362755425, 39.149468259676766 19.140403561325773 C38.8144216068095 19.19457130583575, 38.47937495394225 19.248739050345733, 37.91547965284788 19.3399052695533 C37.58848094155128 19.371450441958594, 37.26148223025469 19.40299561436389, 36.6712442896239 19.45993515863156 C36.2435223654439 19.473651368229792, 35.8158004412639 19.487367577828024, 35.42187500000001 19.5 C35.42187500000001 19.5, 35.42187500000001 19.5, 35.421875 19.5 C15.952301175952844 19.5, -3.5172726480943126 19.5, -35.42187499999999 19.5 C-35.76569694571203 19.488974299409833, -36.10951889142406 19.47794859881967, -36.67124428962389 19.45993515863156 C-36.97639223351283 19.430497903478688, -37.28154017740177 19.401060648325817, -37.91547965284787 19.3399052695533 C-38.23528038597427 19.288202367113147, -38.55508111910066 19.236499464673, -39.14946825967676 19.140403561325773 C-39.422306772166046 19.078129951287778, -39.69514528465533 19.015856341249783, -40.368139386235384 18.862249829261074 C-40.76700332122119 18.743869107036808, -41.165867256206994 18.62548838481254, -41.56648525146059 18.506587066708043 C-41.94973636815991 18.365547113028207, -42.332987484859224 18.224507159348374, -42.7395815951478 18.074876768247425 C-43.02803515212428 17.947186935244684, -43.31648870910077 17.819497102241943, -43.88260791279238 17.568892924097174 C-44.31938912460671 17.341024445665358, -44.756170336421036 17.113155967233542, -44.99086726407678 16.990714730406097 C-45.28174884926914 16.81438060405255, -45.57263043446151 16.638046477699003, -46.059805573605686 16.3427180453909 C-46.356686896552674 16.135626486288416, -46.65356821949966 15.928534927185934, -47.08503034457871 15.627565626425156 C-47.41968687627885 15.360685947978611, -47.75434340797899 15.093806269532065, -48.062328708501866 14.848196188198125 C-48.42742362102123 14.516626648530082, -48.792518533540594 14.185057108862036, -48.987684736767974 14.007812326905697 C-49.23565038659312 13.751767435102765, -49.483616036418276 13.495722543299836, -49.857295942968655 13.109867360095677 C-50.16701436741927 12.746054475258376, -50.47673279186989 12.382241590421076, -50.667588908126575 12.158051136245307 C-50.903517391162204 11.84192846250453, -51.13944587419784 11.525805788763755, -51.415233964640635 11.156274872382316 C-51.59580063999346 10.878875970098946, -51.7763673153463 10.601477067815575, -52.09715887860425 10.108655082055249 C-52.23081671060267 9.87133206701895, -52.36447454260109 9.634009051982652, -52.710561474273504 9.019496659696289 C-52.83957624550672 8.751594726756636, -52.96859101673993 8.483692793816983, -53.25292114880834 7.893275190886686 C-53.375916325306406 7.589474726986492, -53.49891150180448 7.285674263086298, -53.722009229970325 6.73461856121551 C-53.816008569661456 6.4515075268267195, -53.910007909352586 6.168396492437929, -54.11589813421488 5.5482879393051325 C-54.2078614446179 5.197591979587582, -54.299824755020914 4.846896019870031, -54.43296928754556 4.339158212148136 C-54.52811859109694 3.8505866482242137, -54.62326789464832 3.362015084300292, -54.671919776581774 3.112197953150904 C-54.71167126563576 2.8038932538676233, -54.751422754689735 2.495588554584343, -54.83176770250937 1.872449005199809 C-54.85859638889299 1.454570559048983, -54.885425075276615 1.0366921128981568, -54.91185621591342 0.6250057626472781 C-54.91185621591342 0.1677379045828037, -54.91185621591342 -0.28952995348167077, -54.91185621591342 -0.6250057626472687 C-54.89132812237208 -0.9447473895323972, -54.87080002883075 -1.2644890164175258, -54.83176770250937 -1.8724490051997822 C-54.77624481932107 -2.3030735229747954, -54.72072193613277 -2.733698040749809, -54.671919776581774 -3.112197953150895 C-54.60549553335256 -3.4532724033641227, -54.53907129012335 -3.79434685357735, -54.43296928754556 -4.339158212148126 C-54.318319487401055 -4.776367589636829, -54.20366968725655 -5.213576967125531, -54.11589813421489 -5.548287939305123 C-53.979448866239004 -5.9592513942100105, -53.84299959826312 -6.370214849114898, -53.72200922997033 -6.734618561215485 C-53.56345705997813 -7.126245486493899, -53.40490488998592 -7.517872411772315, -53.25292114880834 -7.893275190886676 C-53.07623470483482 -8.260168372281973, -52.8995482608613 -8.627061553677269, -52.710561474273504 -9.019496659696282 C-52.57513612601857 -9.259958078826447, -52.439710777763636 -9.500419497956612, -52.09715887860425 -10.108655082055243 C-51.848193934542635 -10.491132092582143, -51.59922899048102 -10.873609103109045, -51.41523396464064 -11.156274872382308 C-51.19700704190409 -11.44867906796765, -50.978780119167524 -11.741083263552989, -50.66758890812659 -12.158051136245302 C-50.414075215755325 -12.455842744642332, -50.16056152338407 -12.753634353039363, -49.85729594296866 -13.10986736009567 C-49.678911999462265 -13.294063427360157, -49.50052805595587 -13.478259494624643, -48.987684736767996 -14.007812326905677 C-48.676278892507746 -14.2906228753157, -48.364873048247496 -14.57343342372572, -48.06232870850189 -14.848196188198107 C-47.727813866254294 -15.114962873076761, -47.3932990240067 -15.381729557955413, -47.08503034457872 -15.627565626425149 C-46.69128976086018 -15.902222012872048, -46.29754917714164 -16.176878399318948, -46.059805573605715 -16.342718045390885 C-45.838754365653465 -16.47672058669263, -45.617703157701214 -16.610723127994373, -44.99086726407679 -16.99071473040609 C-44.76233728979515 -17.109938671608386, -44.53380731551351 -17.229162612810683, -43.88260791279239 -17.56889292409717 C-43.55012959202716 -17.71607121408097, -43.21765127126193 -17.863249504064772, -42.739581595147804 -18.07487676824742 C-42.29545129022655 -18.238320825953974, -41.85132098530531 -18.401764883660526, -41.56648525146062 -18.506587066708033 C-41.15742375127043 -18.627994372756852, -40.74836225108024 -18.74940167880567, -40.36813938623541 -18.862249829261067 C-39.93245721138774 -18.961691442578157, -39.49677503654008 -19.061133055895244, -39.149468259676766 -19.140403561325773 C-38.74002531705808 -19.20659912101092, -38.33058237443938 -19.27279468069607, -37.91547965284788 -19.3399052695533 C-37.551701354841384 -19.374998524454572, -37.1879230568349 -19.410091779355845, -36.6712442896239 -19.45993515863156 C-36.34409897190546 -19.47042607222106, -36.01695365418703 -19.480916985810556, -35.42187500000001 -19.5 C-35.42187500000001 -19.5, -35.421875 -19.5, -35.421875 -19.5" stroke="none" stroke-width="0" fill="#fefce8" style=""/><path d="M-35.421875 -19.5 C-18.49682410816726 -19.5, -1.5717732163345204 -19.5, 35.421875 -19.5 M-35.421875 -19.5 C-17.242527731701358 -19.5, 0.9368195365972838 -19.5, 35.421875 -19.5 M35.421875 -19.5 C35.421875 -19.5, 35.421875 -19.5, 35.421875 -19.5 M35.421875 -19.5 C35.421875 -19.5, 35.421875 -19.5, 35.421875 -19.5 M35.421875 -19.5 C35.88536841492531 -19.48513666831855, 36.34886182985062 -19.470273336637096, 36.6712442896239 -19.45993515863156 M35.421875 -19.5 C35.86969241316682 -19.485639367183456, 36.317509826333634 -19.471278734366916, 36.6712442896239 -19.45993515863156 M36.6712442896239 -19.45993515863156 C36.94143168614453 -19.4338705054371, 37.21161908266517 -19.40780585224264, 37.915479652847864 -19.3399052695533 M36.6712442896239 -19.45993515863156 C37.121797095347894 -19.416470871332393, 37.57234990107188 -19.373006584033224, 37.915479652847864 -19.3399052695533 M37.915479652847864 -19.3399052695533 C38.19222399946998 -19.295163389775897, 38.468968346092105 -19.250421509998496, 39.14946825967676 -19.140403561325776 M37.915479652847864 -19.3399052695533 C38.18348687402418 -19.296575940460553, 38.45149409520051 -19.253246611367807, 39.14946825967676 -19.140403561325776 M39.14946825967676 -19.140403561325776 C39.51984603988249 -19.055867249934707, 39.890223820088224 -18.97133093854364, 40.36813938623539 -18.862249829261074 M39.14946825967676 -19.140403561325776 C39.4913087854349 -19.062380692039383, 39.83314931119305 -18.984357822752987, 40.36813938623539 -18.862249829261074 M40.36813938623539 -18.862249829261074 C40.79444956680087 -18.73572320541704, 41.220759747366344 -18.609196581573013, 41.566485251460605 -18.50658706670804 M40.36813938623539 -18.862249829261074 C40.78265349641448 -18.739224217188887, 41.19716760659357 -18.616198605116697, 41.566485251460605 -18.50658706670804 M41.566485251460605 -18.50658706670804 C41.91288900470029 -18.379107283394642, 42.259292757939974 -18.251627500081245, 42.7395815951478 -18.074876768247425 M41.566485251460605 -18.50658706670804 C41.90975441627834 -18.380260840909738, 42.253023581096066 -18.25393461511144, 42.7395815951478 -18.074876768247425 M42.7395815951478 -18.074876768247425 C43.00911832564695 -17.95556085317848, 43.27865505614611 -17.83624493810953, 43.88260791279238 -17.568892924097174 M42.7395815951478 -18.074876768247425 C43.125034841310175 -17.904248050235633, 43.51048808747255 -17.733619332223846, 43.88260791279238 -17.568892924097174 M43.88260791279238 -17.568892924097174 C44.24558208925584 -17.37952952873224, 44.6085562657193 -17.190166133367313, 44.99086726407678 -16.990714730406097 M43.88260791279238 -17.568892924097174 C44.311905053050694 -17.344928881002353, 44.74120219330901 -17.120964837907536, 44.99086726407678 -16.990714730406097 M44.99086726407678 -16.990714730406097 C45.23538508827256 -16.842486588432383, 45.47990291246834 -16.69425844645867, 46.0598055736057 -16.342718045390892 M44.99086726407678 -16.990714730406097 C45.387047352100915 -16.75054803283324, 45.78322744012505 -16.510381335260387, 46.0598055736057 -16.342718045390892 M46.0598055736057 -16.342718045390892 C46.46329668009926 -16.06126011634947, 46.866787786592816 -15.779802187308047, 47.08503034457871 -15.627565626425154 M46.0598055736057 -16.342718045390892 C46.39264039525369 -16.110546881996463, 46.725475216901685 -15.878375718602033, 47.08503034457871 -15.627565626425154 M47.08503034457871 -15.627565626425154 C47.318576847489496 -15.441318505287256, 47.55212335040028 -15.255071384149359, 48.062328708501866 -14.848196188198123 M47.08503034457871 -15.627565626425154 C47.406645925824115 -15.371085758931995, 47.72826150706952 -15.114605891438837, 48.062328708501866 -14.848196188198123 M48.062328708501866 -14.848196188198123 C48.37357086490073 -14.56553429677287, 48.6848130212996 -14.282872405347618, 48.98768473676799 -14.007812326905688 M48.062328708501866 -14.848196188198123 C48.33278198729621 -14.602577676198734, 48.60323526609055 -14.356959164199345, 48.98768473676799 -14.007812326905688 M48.98768473676799 -14.007812326905688 C49.30943667392637 -13.67557703546434, 49.63118861108475 -13.34334174402299, 49.85729594296865 -13.10986736009568 M48.98768473676799 -14.007812326905688 C49.29346488588451 -13.692069217925741, 49.59924503500104 -13.376326108945797, 49.85729594296865 -13.10986736009568 M49.85729594296865 -13.10986736009568 C50.02086837126625 -12.917725878282472, 50.18444079956386 -12.725584396469262, 50.66758890812658 -12.158051136245305 M49.85729594296865 -13.10986736009568 C50.16986708730854 -12.742703508152083, 50.48243823164843 -12.375539656208487, 50.66758890812658 -12.158051136245305 M50.66758890812658 -12.158051136245305 C50.846753214233885 -11.917987288265579, 51.025917520341196 -11.677923440285852, 51.415233964640635 -11.156274872382312 M50.66758890812658 -12.158051136245305 C50.857899471658065 -11.903052318762125, 51.04821003518955 -11.648053501278946, 51.415233964640635 -11.156274872382312 M51.415233964640635 -11.156274872382312 C51.67209552957432 -10.7616665316563, 51.92895709450801 -10.367058190930287, 52.09715887860425 -10.108655082055241 M51.415233964640635 -11.156274872382312 C51.67383947760161 -10.758987359170764, 51.93244499056259 -10.361699845959217, 52.09715887860425 -10.108655082055241 M52.09715887860425 -10.108655082055241 C52.2960718222178 -9.755465008549706, 52.49498476583135 -9.402274935044169, 52.710561474273504 -9.019496659696287 M52.09715887860425 -10.108655082055241 C52.24259763117587 -9.850413849593663, 52.38803638374749 -9.592172617132082, 52.710561474273504 -9.019496659696287 M52.710561474273504 -9.019496659696287 C52.870295634185744 -8.687805258875013, 53.030029794097985 -8.356113858053739, 53.25292114880834 -7.893275190886684 M52.710561474273504 -9.019496659696287 C52.91370162843282 -8.597671783081465, 53.11684178259213 -8.175846906466642, 53.25292114880834 -7.893275190886684 M53.25292114880834 -7.893275190886684 C53.39109246000456 -7.551989380871458, 53.529263771200775 -7.210703570856231, 53.722009229970325 -6.734618561215508 M53.25292114880834 -7.893275190886684 C53.35807890519896 -7.633533499514941, 53.46323666158958 -7.3737918081431975, 53.722009229970325 -6.734618561215508 M53.722009229970325 -6.734618561215508 C53.80153449887709 -6.495101121899237, 53.881059767783846 -6.255583682582967, 54.11589813421488 -5.548287939305138 M53.722009229970325 -6.734618561215508 C53.85870747196857 -6.322905236223877, 53.99540571396682 -5.9111919112322475, 54.11589813421488 -5.548287939305138 M54.11589813421488 -5.548287939305138 C54.20358333093376 -5.213906281211406, 54.29126852765263 -4.879524623117674, 54.43296928754556 -4.339158212148133 M54.11589813421488 -5.548287939305138 C54.21488291075834 -5.1708160860714, 54.3138676873018 -4.793344232837662, 54.43296928754556 -4.339158212148133 M54.43296928754556 -4.339158212148133 C54.5241573655295 -3.8709267043077062, 54.61534544351344 -3.4026951964672794, 54.671919776581774 -3.1121979531509023 M54.43296928754556 -4.339158212148133 C54.5217871206003 -3.883097411067704, 54.61060495365504 -3.427036609987275, 54.671919776581774 -3.1121979531509023 M54.671919776581774 -3.1121979531509023 C54.71796458590957 -2.7550835045805897, 54.76400939523736 -2.397969056010277, 54.83176770250937 -1.872449005199798 M54.671919776581774 -3.1121979531509023 C54.709069092045326 -2.8240751983777006, 54.74621840750888 -2.535952443604499, 54.83176770250937 -1.872449005199798 M54.83176770250937 -1.872449005199798 C54.86072772889342 -1.4213732181556207, 54.88968775527747 -0.9702974311114433, 54.91185621591342 -0.6250057626472757 M54.83176770250937 -1.872449005199798 C54.85417494505945 -1.52343811568162, 54.876582187609536 -1.1744272261634416, 54.91185621591342 -0.6250057626472757 M54.91185621591342 -0.6250057626472757 C54.91185621591342 -0.13527882488126058, 54.91185621591342 0.35444811288475453, 54.91185621591342 0.625005762647271 M54.91185621591342 -0.6250057626472757 C54.91185621591342 -0.35563760431890784, 54.91185621591342 -0.08626944599053998, 54.91185621591342 0.625005762647271 M54.91185621591342 0.625005762647271 C54.88183388683095 1.0926277716945834, 54.851811557748476 1.5602497807418958, 54.83176770250937 1.8724490051997846 M54.91185621591342 0.625005762647271 C54.88534762747999 1.0378984248453678, 54.85883903904656 1.4507910870434644, 54.83176770250937 1.8724490051997846 M54.83176770250937 1.8724490051997846 C54.76834053249332 2.3643776107328396, 54.70491336247727 2.856306216265894, 54.671919776581774 3.1121979531508885 M54.83176770250937 1.8724490051997846 C54.798999462150086 2.126593006605426, 54.7662312217908 2.380737008011068, 54.671919776581774 3.1121979531508885 M54.671919776581774 3.1121979531508885 C54.59281590491978 3.5183796155260145, 54.5137120332578 3.924561277901141, 54.43296928754556 4.339158212148129 M54.671919776581774 3.1121979531508885 C54.5925862052888 3.5195590745841088, 54.51325263399582 3.9269201960173294, 54.43296928754556 4.339158212148129 M54.43296928754556 4.339158212148129 C54.368036344485 4.586775666153587, 54.303103401424444 4.834393120159045, 54.11589813421489 5.548287939305125 M54.43296928754556 4.339158212148129 C54.358697892359196 4.622387231420035, 54.28442649717283 4.905616250691942, 54.11589813421489 5.548287939305125 M54.11589813421489 5.548287939305125 C54.00799152395299 5.873285456830412, 53.90008491369109 6.198282974355698, 53.722009229970325 6.734618561215495 M54.11589813421489 5.548287939305125 C54.00153935322951 5.892718367035737, 53.88718057224413 6.237148794766348, 53.722009229970325 6.734618561215495 M53.722009229970325 6.734618561215495 C53.57134020288923 7.106773971093264, 53.42067117580814 7.478929380971034, 53.25292114880834 7.893275190886679 M53.722009229970325 6.734618561215495 C53.596164538111374 7.045457383148711, 53.470319846252416 7.356296205081927, 53.25292114880834 7.893275190886679 M53.25292114880834 7.893275190886679 C53.070497239898955 8.272082340983385, 52.88807333098957 8.65088949108009, 52.710561474273504 9.019496659696284 M53.25292114880834 7.893275190886679 C53.14246808542365 8.122633340321954, 53.032015022038955 8.35199148975723, 52.710561474273504 9.019496659696284 M52.710561474273504 9.019496659696284 C52.539666972603115 9.32293715235684, 52.36877247093272 9.626377645017396, 52.09715887860425 10.108655082055236 M52.710561474273504 9.019496659696284 C52.55162839625507 9.301698433437311, 52.392695318236626 9.583900207178338, 52.09715887860425 10.108655082055236 M52.09715887860425 10.108655082055236 C51.929150474086114 10.366761107968614, 51.76114206956799 10.62486713388199, 51.41523396464064 11.156274872382301 M52.09715887860425 10.108655082055236 C51.8903099124875 10.42643064073523, 51.683460946370765 10.744206199415222, 51.41523396464064 11.156274872382301 M51.41523396464064 11.156274872382301 C51.23120545065366 11.40285631578234, 51.04717693666667 11.649437759182378, 50.66758890812658 12.158051136245302 M51.41523396464064 11.156274872382301 C51.15597177659981 11.503662585085788, 50.896709588558984 11.851050297789277, 50.66758890812658 12.158051136245302 M50.66758890812658 12.158051136245302 C50.500299875653 12.354558352804386, 50.33301084317941 12.55106556936347, 49.85729594296866 13.10986736009567 M50.66758890812658 12.158051136245302 C50.38977301148647 12.484389496611124, 50.11195711484636 12.810727856976944, 49.85729594296866 13.10986736009567 M49.85729594296866 13.10986736009567 C49.67784998929194 13.295160040053672, 49.49840403561522 13.480452720011671, 48.98768473676799 14.007812326905684 M49.85729594296866 13.10986736009567 C49.54029056592673 13.437201438516947, 49.2232851888848 13.764535516938224, 48.98768473676799 14.007812326905684 M48.98768473676799 14.007812326905684 C48.67943593708263 14.287755730963612, 48.37118713739727 14.567699135021538, 48.06232870850189 14.848196188198111 M48.98768473676799 14.007812326905684 C48.77420610984645 14.201687967540876, 48.56072748292492 14.395563608176065, 48.06232870850189 14.848196188198111 M48.06232870850189 14.848196188198111 C47.78934863004854 15.065890536459682, 47.5163685515952 15.283584884721252, 47.08503034457871 15.627565626425152 M48.06232870850189 14.848196188198111 C47.81383979057843 15.046359487674252, 47.565350872654975 15.244522787150393, 47.08503034457871 15.627565626425152 M47.08503034457871 15.627565626425152 C46.87100980896464 15.776857087269867, 46.65698927335056 15.926148548114583, 46.05980557360571 16.34271804539089 M47.08503034457871 15.627565626425152 C46.708931814967094 15.889915679639273, 46.332833285355484 16.152265732853394, 46.05980557360571 16.34271804539089 M46.05980557360571 16.34271804539089 C45.63502564899698 16.600222131972618, 45.21024572438825 16.85772621855435, 44.99086726407678 16.990714730406093 M46.05980557360571 16.34271804539089 C45.695554794964025 16.56352900797865, 45.33130401632235 16.78433997056641, 44.99086726407678 16.990714730406093 M44.99086726407678 16.990714730406093 C44.624797243371056 17.181693225729234, 44.25872722266532 17.372671721052374, 43.88260791279239 17.56889292409717 M44.99086726407678 16.990714730406093 C44.696146936638876 17.144470136453073, 44.40142660920097 17.29822554250005, 43.88260791279239 17.56889292409717 M43.88260791279239 17.56889292409717 C43.49547560356928 17.740264913518306, 43.108343294346184 17.911636902939446, 42.739581595147804 18.07487676824742 M43.88260791279239 17.56889292409717 C43.469479703755866 17.75177252722474, 43.05635149471934 17.93465213035231, 42.739581595147804 18.07487676824742 M42.739581595147804 18.07487676824742 C42.45354269339553 18.18014172820688, 42.167503791643256 18.28540668816634, 41.56648525146062 18.506587066708033 M42.739581595147804 18.07487676824742 C42.36445556742695 18.212926614075684, 41.9893295397061 18.350976459903944, 41.56648525146062 18.506587066708033 M41.56648525146062 18.506587066708033 C41.23663642688072 18.604484466431536, 40.906787602300824 18.702381866155037, 40.36813938623541 18.86224982926107 M41.56648525146062 18.506587066708033 C41.14821627048114 18.63072710472406, 40.729947289501666 18.754867142740085, 40.36813938623541 18.86224982926107 M40.36813938623541 18.86224982926107 C40.10729670897884 18.921785468187338, 39.846454031722274 18.981321107113605, 39.149468259676766 19.140403561325773 M40.36813938623541 18.86224982926107 C40.10130636096371 18.92315272603112, 39.83447333569201 18.984055622801165, 39.149468259676766 19.140403561325773 M39.149468259676766 19.140403561325773 C38.89944702398032 19.18082505576953, 38.64942578828388 19.221246550213294, 37.91547965284788 19.3399052695533 M39.149468259676766 19.140403561325773 C38.816053006386106 19.1943075538039, 38.48263775309545 19.24821154628203, 37.91547965284788 19.3399052695533 M37.91547965284788 19.3399052695533 C37.49903682983745 19.380079007843346, 37.082594006827016 19.42025274613339, 36.6712442896239 19.45993515863156 M37.91547965284788 19.3399052695533 C37.45550165647879 19.38427879365855, 36.995523660109704 19.428652317763795, 36.6712442896239 19.45993515863156 M36.6712442896239 19.45993515863156 C36.24695845404504 19.473541179556292, 35.82267261846619 19.48714720048103, 35.42187500000001 19.5 M36.6712442896239 19.45993515863156 C36.176196486601654 19.47581037812239, 35.681148683579416 19.49168559761322, 35.42187500000001 19.5 M35.42187500000001 19.5 C35.42187500000001 19.5, 35.421875 19.5, 35.421875 19.5 M35.42187500000001 19.5 C35.42187500000001 19.5, 35.42187500000001 19.5, 35.421875 19.5 M35.421875 19.5 C12.541791843553415 19.5, -10.338291312893169 19.5, -35.42187499999999 19.5 M35.421875 19.5 C11.478057531431851 19.5, -12.465759937136298 19.5, -35.42187499999999 19.5 M-35.42187499999999 19.5 C-35.74328882774977 19.48969288413813, -36.064702655499545 19.479385768276256, -36.67124428962389 19.45993515863156 M-35.42187499999999 19.5 C-35.701448567525524 19.491034619846392, -35.98102213505105 19.482069239692787, -36.67124428962389 19.45993515863156 M-36.67124428962389 19.45993515863156 C-37.12651141117645 19.416016086954205, -37.58177853272901 19.37209701527685, -37.91547965284787 19.3399052695533 M-36.67124428962389 19.45993515863156 C-37.07145937749532 19.421326890433665, -37.47167446536675 19.382718622235775, -37.91547965284787 19.3399052695533 M-37.91547965284787 19.3399052695533 C-38.329613239702255 19.272951362884612, -38.74374682655664 19.20599745621593, -39.14946825967676 19.140403561325773 M-37.91547965284787 19.3399052695533 C-38.38383577034556 19.26418508463221, -38.85219188784326 19.188464899711118, -39.14946825967676 19.140403561325773 M-39.14946825967676 19.140403561325773 C-39.54124829173105 19.050982325613017, -39.933028323785344 18.96156108990026, -40.368139386235384 18.862249829261074 M-39.14946825967676 19.140403561325773 C-39.42890449547383 19.076624063996945, -39.708340731270894 19.012844566668118, -40.368139386235384 18.862249829261074 M-40.368139386235384 18.862249829261074 C-40.79121464218418 18.73668331406281, -41.214289898132975 18.611116798864543, -41.56648525146059 18.506587066708043 M-40.368139386235384 18.862249829261074 C-40.7051650208905 18.762222389979094, -41.04219065554562 18.662194950697113, -41.56648525146059 18.506587066708043 M-41.56648525146059 18.506587066708043 C-42.00273470065407 18.346043236759144, -42.438984149847535 18.185499406810244, -42.7395815951478 18.074876768247425 M-41.56648525146059 18.506587066708043 C-41.89110994140794 18.38712218000968, -42.21573463135529 18.267657293311316, -42.7395815951478 18.074876768247425 M-42.7395815951478 18.074876768247425 C-43.138946358331424 17.898089834320817, -43.53831112151505 17.72130290039421, -43.88260791279238 17.568892924097174 M-42.7395815951478 18.074876768247425 C-43.06472273262251 17.930946431656526, -43.38986387009723 17.787016095065624, -43.88260791279238 17.568892924097174 M-43.88260791279238 17.568892924097174 C-44.120387645683515 17.444843389753057, -44.35816737857465 17.32079385540894, -44.99086726407678 16.990714730406097 M-43.88260791279238 17.568892924097174 C-44.23795916109048 17.383506405473394, -44.59331040938857 17.198119886849618, -44.99086726407678 16.990714730406097 M-44.99086726407678 16.990714730406097 C-45.22527824292894 16.848613417474105, -45.45968922178108 16.706512104542114, -46.059805573605686 16.3427180453909 M-44.99086726407678 16.990714730406097 C-45.29013483375727 16.80929697097433, -45.58940240343777 16.627879211542567, -46.059805573605686 16.3427180453909 M-46.059805573605686 16.3427180453909 C-46.28610174685931 16.184863631132625, -46.51239792011293 16.02700921687435, -47.08503034457871 15.627565626425156 M-46.059805573605686 16.3427180453909 C-46.329303274569206 16.154728115566197, -46.598800975532725 15.966738185741491, -47.08503034457871 15.627565626425156 M-47.08503034457871 15.627565626425156 C-47.383043780018575 15.389907842132438, -47.681057215458445 15.15225005783972, -48.062328708501866 14.848196188198125 M-47.08503034457871 15.627565626425156 C-47.4216453650976 15.359124105263234, -47.758260385616495 15.09068258410131, -48.062328708501866 14.848196188198125 M-48.062328708501866 14.848196188198125 C-48.401118377688555 14.540516374526215, -48.73990804687524 14.232836560854306, -48.987684736767974 14.007812326905697 M-48.062328708501866 14.848196188198125 C-48.35993673027136 14.577916457103832, -48.65754475204085 14.30763672600954, -48.987684736767974 14.007812326905697 M-48.987684736767974 14.007812326905697 C-49.31279285542476 13.672111502519625, -49.637900974081546 13.336410678133552, -49.857295942968655 13.109867360095677 M-48.987684736767974 14.007812326905697 C-49.23816684270151 13.749168987565966, -49.48864894863505 13.490525648226235, -49.857295942968655 13.109867360095677 M-49.857295942968655 13.109867360095677 C-50.10048781029226 12.82420035472811, -50.34367967761585 12.538533349360542, -50.667588908126575 12.158051136245307 M-49.857295942968655 13.109867360095677 C-50.12631627223723 12.793860773646417, -50.39533660150582 12.477854187197156, -50.667588908126575 12.158051136245307 M-50.667588908126575 12.158051136245307 C-50.88959483692645 11.860583416809668, -51.111600765726315 11.563115697374027, -51.415233964640635 11.156274872382316 M-50.667588908126575 12.158051136245307 C-50.915195271135595 11.826281167216942, -51.162801634144614 11.494511198188576, -51.415233964640635 11.156274872382316 M-51.415233964640635 11.156274872382316 C-51.67784560147317 10.75283287710916, -51.94045723830572 10.349390881836007, -52.09715887860425 10.108655082055249 M-51.415233964640635 11.156274872382316 C-51.63992692258754 10.811086150468471, -51.86461988053445 10.465897428554625, -52.09715887860425 10.108655082055249 M-52.09715887860425 10.108655082055249 C-52.27861119267251 9.78646812438784, -52.46006350674077 9.464281166720431, -52.710561474273504 9.019496659696289 M-52.09715887860425 10.108655082055249 C-52.268258665809796 9.804850084139607, -52.439358453015345 9.501045086223966, -52.710561474273504 9.019496659696289 M-52.710561474273504 9.019496659696289 C-52.91382536598574 8.597414839405271, -53.11708925769797 8.175333019114253, -53.25292114880834 7.893275190886686 M-52.710561474273504 9.019496659696289 C-52.90459896452846 8.616573659444676, -53.09863645478342 8.213650659193062, -53.25292114880834 7.893275190886686 M-53.25292114880834 7.893275190886686 C-53.3862969891872 7.5638342865044494, -53.51967282956606 7.234393382122213, -53.722009229970325 6.73461856121551 M-53.25292114880834 7.893275190886686 C-53.39188927196582 7.550021239921822, -53.530857395123306 7.206767288956958, -53.722009229970325 6.73461856121551 M-53.722009229970325 6.73461856121551 C-53.84765511140885 6.3561931852752505, -53.97330099284738 5.977767809334991, -54.11589813421488 5.5482879393051325 M-53.722009229970325 6.73461856121551 C-53.860602933814285 6.317196407145418, -53.99919663765825 5.899774253075326, -54.11589813421488 5.5482879393051325 M-54.11589813421488 5.5482879393051325 C-54.18163450578223 5.297606664195194, -54.24737087734957 5.0469253890852555, -54.43296928754556 4.339158212148136 M-54.11589813421488 5.5482879393051325 C-54.20043001597958 5.225931237787037, -54.284961897744274 4.903574536268942, -54.43296928754556 4.339158212148136 M-54.43296928754556 4.339158212148136 C-54.5017421753892 3.986023968226037, -54.57051506323284 3.632889724303938, -54.671919776581774 3.112197953150904 M-54.43296928754556 4.339158212148136 C-54.51857578832479 3.899586923587131, -54.60418228910402 3.460015635026126, -54.671919776581774 3.112197953150904 M-54.671919776581774 3.112197953150904 C-54.73396680389575 2.6309734618751492, -54.79601383120972 2.1497489705993944, -54.83176770250937 1.872449005199809 M-54.671919776581774 3.112197953150904 C-54.730107639961645 2.66090437526991, -54.78829550334152 2.2096107973889163, -54.83176770250937 1.872449005199809 M-54.83176770250937 1.872449005199809 C-54.85732794356209 1.4743276189484669, -54.88288818461481 1.0762062326971247, -54.91185621591342 0.6250057626472781 M-54.83176770250937 1.872449005199809 C-54.853152250073265 1.5393674155959778, -54.87453679763716 1.2062858259921465, -54.91185621591342 0.6250057626472781 M-54.91185621591342 0.6250057626472781 C-54.91185621591342 0.23497206754804428, -54.91185621591342 -0.15506162755118957, -54.91185621591342 -0.6250057626472687 M-54.91185621591342 0.6250057626472781 C-54.91185621591342 0.2458951829899878, -54.91185621591342 -0.13321539666730253, -54.91185621591342 -0.6250057626472687 M-54.91185621591342 -0.6250057626472687 C-54.885325966844746 -1.038235806723416, -54.858795717776076 -1.4514658507995635, -54.83176770250937 -1.8724490051997822 M-54.91185621591342 -0.6250057626472687 C-54.89509924046677 -0.8860091812159121, -54.87834226502012 -1.1470125997845555, -54.83176770250937 -1.8724490051997822 M-54.83176770250937 -1.8724490051997822 C-54.77431375444681 -2.3180504808076883, -54.71685980638424 -2.7636519564155946, -54.671919776581774 -3.112197953150895 M-54.83176770250937 -1.8724490051997822 C-54.78896315828217 -2.204432597512567, -54.74615861405498 -2.536416189825352, -54.671919776581774 -3.112197953150895 M-54.671919776581774 -3.112197953150895 C-54.62244137667223 -3.3662590794229077, -54.572962976762675 -3.62032020569492, -54.43296928754556 -4.339158212148126 M-54.671919776581774 -3.112197953150895 C-54.61817473374915 -3.388167389077586, -54.56442969091653 -3.6641368250042765, -54.43296928754556 -4.339158212148126 M-54.43296928754556 -4.339158212148126 C-54.3474851363041 -4.6651463298973255, -54.26200098506264 -4.991134447646525, -54.11589813421489 -5.548287939305123 M-54.43296928754556 -4.339158212148126 C-54.34136780068529 -4.688474381881874, -54.24976631382502 -5.037790551615623, -54.11589813421489 -5.548287939305123 M-54.11589813421489 -5.548287939305123 C-53.97229200229151 -5.980806728128437, -53.82868587036814 -6.413325516951751, -53.72200922997033 -6.734618561215485 M-54.11589813421489 -5.548287939305123 C-53.970781938836936 -5.985354798657691, -53.825665743458984 -6.4224216580102595, -53.72200922997033 -6.734618561215485 M-53.72200922997033 -6.734618561215485 C-53.5851307191651 -7.07271112927039, -53.44825220835986 -7.410803697325294, -53.25292114880834 -7.893275190886676 M-53.72200922997033 -6.734618561215485 C-53.583488918283734 -7.076766409189413, -53.444968606597136 -7.41891425716334, -53.25292114880834 -7.893275190886676 M-53.25292114880834 -7.893275190886676 C-53.04469742002729 -8.325656218974599, -52.83647369124625 -8.758037247062521, -52.710561474273504 -9.019496659696282 M-53.25292114880834 -7.893275190886676 C-53.11125402769216 -8.187449999075229, -52.969586906575984 -8.481624807263781, -52.710561474273504 -9.019496659696282 M-52.710561474273504 -9.019496659696282 C-52.491231281609856 -9.408939626360924, -52.27190108894621 -9.798382593025567, -52.09715887860425 -10.108655082055243 M-52.710561474273504 -9.019496659696282 C-52.55481668865658 -9.296037297428816, -52.39907190303965 -9.572577935161348, -52.09715887860425 -10.108655082055243 M-52.09715887860425 -10.108655082055243 C-51.900618982719976 -10.41059314048519, -51.70407908683571 -10.712531198915137, -51.41523396464064 -11.156274872382308 M-52.09715887860425 -10.108655082055243 C-51.861853992784 -10.470146574884172, -51.62654910696375 -10.8316380677131, -51.41523396464064 -11.156274872382308 M-51.41523396464064 -11.156274872382308 C-51.126242174401284 -11.543497543609346, -50.837250384161926 -11.930720214836382, -50.66758890812659 -12.158051136245302 M-51.41523396464064 -11.156274872382308 C-51.198427883061335 -11.446775270258229, -50.98162180148202 -11.737275668134147, -50.66758890812659 -12.158051136245302 M-50.66758890812659 -12.158051136245302 C-50.409103479332046 -12.461682829144934, -50.1506180505375 -12.765314522044566, -49.85729594296866 -13.10986736009567 M-50.66758890812659 -12.158051136245302 C-50.36330069820546 -12.515485382108304, -50.059012488284324 -12.872919627971305, -49.85729594296866 -13.10986736009567 M-49.85729594296866 -13.10986736009567 C-49.628450705482585 -13.34616885634346, -49.39960546799651 -13.582470352591253, -48.987684736767996 -14.007812326905677 M-49.85729594296866 -13.10986736009567 C-49.5717980769973 -13.404667346521821, -49.28630021102593 -13.699467332947972, -48.987684736767996 -14.007812326905677 M-48.987684736767996 -14.007812326905677 C-48.683839719543194 -14.283756332250627, -48.37999470231839 -14.559700337595578, -48.06232870850189 -14.848196188198107 M-48.987684736767996 -14.007812326905677 C-48.752204290807406 -14.221669437455901, -48.51672384484682 -14.435526548006127, -48.06232870850189 -14.848196188198107 M-48.06232870850189 -14.848196188198107 C-47.675086595850395 -15.157011468092279, -47.287844483198896 -15.465826747986448, -47.08503034457872 -15.627565626425149 M-48.06232870850189 -14.848196188198107 C-47.77699939889081 -15.07573871968113, -47.49167008927974 -15.303281251164154, -47.08503034457872 -15.627565626425149 M-47.08503034457872 -15.627565626425149 C-46.79145814746369 -15.832348882597005, -46.49788595034867 -16.03713213876886, -46.059805573605715 -16.342718045390885 M-47.08503034457872 -15.627565626425149 C-46.86660337548572 -15.77993082451333, -46.64817640639272 -15.932296022601513, -46.059805573605715 -16.342718045390885 M-46.059805573605715 -16.342718045390885 C-45.8173061746784 -16.489722606105275, -45.57480677575108 -16.636727166819664, -44.99086726407679 -16.99071473040609 M-46.059805573605715 -16.342718045390885 C-45.73293913758803 -16.540866399785195, -45.40607270157036 -16.7390147541795, -44.99086726407679 -16.99071473040609 M-44.99086726407679 -16.99071473040609 C-44.586615884008744 -17.201612416452225, -44.18236450394069 -17.41251010249836, -43.88260791279239 -17.56889292409717 M-44.99086726407679 -16.99071473040609 C-44.59753177757643 -17.195917601769924, -44.20419629107607 -17.40112047313376, -43.88260791279239 -17.56889292409717 M-43.88260791279239 -17.56889292409717 C-43.43539886659339 -17.766859102864455, -42.98818982039439 -17.964825281631736, -42.739581595147804 -18.07487676824742 M-43.88260791279239 -17.56889292409717 C-43.61880093439157 -17.685672447879238, -43.354993955990764 -17.802451971661306, -42.739581595147804 -18.07487676824742 M-42.739581595147804 -18.07487676824742 C-42.41698450695289 -18.193595478757942, -42.09438741875799 -18.31231418926846, -41.56648525146062 -18.506587066708033 M-42.739581595147804 -18.07487676824742 C-42.41038810551037 -18.196023015465254, -42.081194615872946 -18.31716926268309, -41.56648525146062 -18.506587066708033 M-41.56648525146062 -18.506587066708033 C-41.108317374565324 -18.642568887598294, -40.65014949767002 -18.778550708488556, -40.36813938623541 -18.862249829261067 M-41.56648525146062 -18.506587066708033 C-41.314192381645505 -18.58146626615686, -41.06189951183039 -18.65634546560569, -40.36813938623541 -18.862249829261067 M-40.36813938623541 -18.862249829261067 C-40.077188422634634 -18.92865748807047, -39.78623745903385 -18.995065146879877, -39.149468259676766 -19.140403561325773 M-40.36813938623541 -18.862249829261067 C-40.03316019576381 -18.938706643542705, -39.69818100529221 -19.015163457824343, -39.149468259676766 -19.140403561325773 M-39.149468259676766 -19.140403561325773 C-38.70499710857559 -19.212262210110556, -38.260525957474414 -19.284120858895335, -37.91547965284788 -19.3399052695533 M-39.149468259676766 -19.140403561325773 C-38.75352739176193 -19.204416210282954, -38.35758652384709 -19.268428859240135, -37.91547965284788 -19.3399052695533 M-37.91547965284788 -19.3399052695533 C-37.49880419215769 -19.380101450120524, -37.082128731467506 -19.420297630687745, -36.6712442896239 -19.45993515863156 M-37.91547965284788 -19.3399052695533 C-37.4368101344556 -19.38608194230828, -36.95814061606332 -19.43225861506326, -36.6712442896239 -19.45993515863156 M-36.6712442896239 -19.45993515863156 C-36.311579123978966 -19.471468920448018, -35.95191395833403 -19.483002682264473, -35.42187500000001 -19.5 M-36.6712442896239 -19.45993515863156 C-36.40589011482593 -19.468444550536763, -36.14053594002795 -19.476953942441966, -35.42187500000001 -19.5 M-35.42187500000001 -19.5 C-35.42187500000001 -19.5, -35.421875 -19.5, -35.421875 -19.5 M-35.42187500000001 -19.5 C-35.42187500000001 -19.5, -35.421875 -19.5, -35.421875 -19.5" stroke="#fbbf24" stroke-width="1.3" fill="none" stroke-dasharray="0 0" style=""/></g><g class="label" style="" transform="translate(-42.546875, -12)"><rect/><foreignObject width="85.09375" height="24"><div xmlns="http://www.w3.org/1999/xhtml" style="display: table-cell; white-space: nowrap; line-height: 1.5; max-width: 200px; text-align: center;"><span class="nodeLabel"><p>🌐 Internet</p></span></div></foreignObject></g></g><g class="node default" id="my-svg-flowchart-R53-1" data-look="classic" transform="translate(2385.609375, 185)"><rect class="basic label-container" style="" x="-94.9140625" y="-39" width="189.828125" height="78"/><g class="label" style="" transform="translate(-64.9140625, -24)"><rect/><foreignObject width="129.828125" height="48"><div xmlns="http://www.w3.org/1999/xhtml" style="display: table-cell; white-space: nowrap; line-height: 1.5; max-width: 200px; text-align: center;"><span class="nodeLabel"><p>Route 53<br />a20-app-049.io.vn</p></span></div></foreignObject></g></g><g class="node default" id="my-svg-flowchart-GH-2" data-look="classic" transform="translate(201.765625, 185)"><rect class="basic label-container" style="" x="-117.40625" y="-63" width="234.8125" height="126"/><g class="label" style="" transform="translate(-87.40625, -48)"><rect/><foreignObject width="174.8125" height="96"><div xmlns="http://www.w3.org/1999/xhtml" style="display: table-cell; white-space: nowrap; line-height: 1.5; max-width: 200px; text-align: center;"><span class="nodeLabel"><p>GitHub Actions<br />build-push.yml<br />deploy-ecs-prod.yml<br />(self-hosted EC2 runner)</p></span></div></foreignObject></g></g><g class="node default" id="my-svg-flowchart-ECR-3" data-look="classic" transform="translate(1036.9140625, 435)"><rect class="basic label-container" style="" x="-116.5234375" y="-63" width="233.046875" height="126"/><g class="label" style="" transform="translate(-86.5234375, -48)"><rect/><foreignObject width="173.046875" height="96"><div xmlns="http://www.w3.org/1999/xhtml" style="display: table-cell; white-space: nowrap; line-height: 1.5; max-width: 200px; text-align: center;"><span class="nodeLabel"><p>ECR<br />Frontend image<br />Backend image<br />(tagged by commit SHA)</p></span></div></foreignObject></g></g><g class="node default" id="my-svg-flowchart-ALB-5" data-look="classic" transform="translate(2385.609375, 435)"><rect class="basic label-container" style="" x="-123.4765625" y="-63" width="246.953125" height="126"/><g class="label" style="" transform="translate(-93.4765625, -48)"><rect/><foreignObject width="186.953125" height="96"><div xmlns="http://www.w3.org/1999/xhtml" style="display: table-cell; white-space: nowrap; line-height: 1.5; max-width: 200px; text-align: center;"><span class="nodeLabel"><p>Application Load Balancer<br />HTTPS:443<br />app.* → frontend<br />api.* → backend</p></span></div></foreignObject></g></g><g class="node default" id="my-svg-flowchart-NAT-7" data-look="classic" transform="translate(2385.609375, 899)"><rect class="basic label-container" style="" x="-88.5234375" y="-39" width="177.046875" height="78"/><g class="label" style="" transform="translate(-58.5234375, -24)"><rect/><foreignObject width="117.046875" height="48"><div xmlns="http://www.w3.org/1999/xhtml" style="display: table-cell; white-space: nowrap; line-height: 1.5; max-width: 200px; text-align: center;"><span class="nodeLabel"><p>NAT Gateway<br />outbound egress</p></span></div></foreignObject></g></g><g class="node default" id="my-svg-flowchart-FE-8" data-look="classic" transform="translate(1465.78125, 673)"><rect class="basic label-container" style="" x="-122.2578125" y="-51" width="244.515625" height="102"/><g class="label" style="" transform="translate(-92.2578125, -36)"><rect/><foreignObject width="184.515625" height="72"><div xmlns="http://www.w3.org/1999/xhtml" style="display: table-cell; white-space: nowrap; line-height: 1.5; max-width: 200px; text-align: center;"><span class="nodeLabel"><p>Frontend Service<br />Next.js 14 standalone<br />a20-frontend · PORT 3000</p></span></div></foreignObject></g></g><g class="node default" id="my-svg-flowchart-BE-9" data-look="classic" transform="translate(1779.859375, 673)"><rect class="basic label-container" style="" x="-121.0078125" y="-51" width="242.015625" height="102"/><g class="label" style="" transform="translate(-91.0078125, -36)"><rect/><foreignObject width="182.015625" height="72"><div xmlns="http://www.w3.org/1999/xhtml" style="display: table-cell; white-space: nowrap; line-height: 1.5; max-width: 200px; text-align: center;"><span class="nodeLabel"><p>Backend Service<br />FastAPI + uvicorn<br />a20-backend · PORT 8000</p></span></div></foreignObject></g></g><g class="node default" id="my-svg-flowchart-TASKS-10" data-look="classic" transform="translate(2051.5, 673)"><rect class="basic label-container" style="" x="-100.6328125" y="-51" width="201.265625" height="102"/><g class="label" style="" transform="translate(-70.6328125, -36)"><rect/><foreignObject width="141.265625" height="72"><div xmlns="http://www.w3.org/1999/xhtml" style="display: table-cell; white-space: nowrap; line-height: 1.5; max-width: 200px; text-align: center;"><span class="nodeLabel"><p>One-off Tasks<br />migrate · seed-core<br />seed-accounts</p></span></div></foreignObject></g></g><g class="node default" id="my-svg-flowchart-RDS-11" data-look="classic" transform="translate(1379.05078125, 899)"><rect class="basic label-container" style="" x="-115.921875" y="-51" width="231.84375" height="102"/><g class="label" style="" transform="translate(-85.921875, -36)"><rect/><foreignObject width="171.84375" height="72"><div xmlns="http://www.w3.org/1999/xhtml" style="display: table-cell; white-space: nowrap; line-height: 1.5; max-width: 200px; text-align: center;"><span class="nodeLabel"><p>RDS PostgreSQL 16<br />+ pgvector · port 5432<br />only backend SG ingress</p></span></div></foreignObject></g></g><g class="node default" id="my-svg-flowchart-REDIS-12" data-look="classic" transform="translate(1660.89453125, 899)"><rect class="basic label-container" style="" x="-115.921875" y="-51" width="231.84375" height="102"/><g class="label" style="" transform="translate(-85.921875, -36)"><rect/><foreignObject width="171.84375" height="72"><div xmlns="http://www.w3.org/1999/xhtml" style="display: table-cell; white-space: nowrap; line-height: 1.5; max-width: 200px; text-align: center;"><span class="nodeLabel"><p>ElastiCache Redis 7<br />port 6379<br />only backend SG ingress</p></span></div></foreignObject></g></g><g class="node default" id="my-svg-flowchart-SM-14" data-look="classic" transform="translate(751.359375, 435)"><rect class="basic label-container" style="" x="-119.03125" y="-51" width="238.0625" height="102"/><g class="label" style="" transform="translate(-89.03125, -36)"><rect/><foreignObject width="178.0625" height="72"><div xmlns="http://www.w3.org/1999/xhtml" style="display: table-cell; white-space: nowrap; line-height: 1.5; max-width: 200px; text-align: center;"><span class="nodeLabel"><p>Secrets Manager<br />DB_URL · REDIS_URL<br />API keys · vLLM endpoint</p></span></div></foreignObject></g></g><g class="node default" id="my-svg-flowchart-CW-15" data-look="classic" transform="translate(485.75, 435)"><rect class="basic label-container" style="" x="-96.578125" y="-51" width="193.15625" height="102"/><g class="label" style="" transform="translate(-66.578125, -36)"><rect/><foreignObject width="133.15625" height="72"><div xmlns="http://www.w3.org/1999/xhtml" style="display: table-cell; white-space: nowrap; line-height: 1.5; max-width: 200px; text-align: center;"><span class="nodeLabel"><p>CloudWatch<br />/ecs/a20-frontend<br />/ecs/a20-backend</p></span></div></foreignObject></g></g><g class="node default" id="my-svg-flowchart-S3-16" data-look="classic" transform="translate(3563.49609375, 899)"><rect class="basic label-container" style="" x="-105.9921875" y="-51" width="211.984375" height="102"/><g class="label" style="" transform="translate(-75.9921875, -36)"><rect/><foreignObject width="151.984375" height="72"><div xmlns="http://www.w3.org/1999/xhtml" style="display: table-cell; white-space: nowrap; line-height: 1.5; max-width: 200px; text-align: center;"><span class="nodeLabel"><p>S3 Private Bucket<br />course videos · slides<br />Origin Access Control</p></span></div></foreignObject></g></g><g class="node default" id="my-svg-flowchart-CF-17" data-look="classic" transform="translate(3651, 1292)"><rect class="basic label-container" style="" x="-110.640625" y="-51" width="221.28125" height="102"/><g class="label" style="" transform="translate(-80.640625, -36)"><rect/><foreignObject width="161.28125" height="72"><div xmlns="http://www.w3.org/1999/xhtml" style="display: table-cell; white-space: nowrap; line-height: 1.5; max-width: 200px; text-align: center;"><span class="nodeLabel"><p>CloudFront<br />cdn.a20-app-049.io.vn<br />Signed URLs · 1h TTL</p></span></div></foreignObject></g></g><g class="node default" id="my-svg-flowchart-PROM-18" data-look="classic" transform="translate(2738.890625, 899)"><rect class="basic label-container" style="" x="-89.9453125" y="-39" width="179.890625" height="78"/><g class="label" style="" transform="translate(-59.9453125, -24)"><rect/><foreignObject width="119.890625" height="48"><div xmlns="http://www.w3.org/1999/xhtml" style="display: table-cell; white-space: nowrap; line-height: 1.5; max-width: 200px; text-align: center;"><span class="nodeLabel"><p>Prometheus<br />scrapes /metrics</p></span></div></foreignObject></g></g><g class="node default" id="my-svg-flowchart-GRAFANA-19" data-look="classic" transform="translate(2738.890625, 1292)"><rect class="basic label-container" style="" x="-119.8046875" y="-39" width="239.609375" height="78"/><g class="label" style="" transform="translate(-89.8046875, -24)"><rect/><foreignObject width="179.609375" height="48"><div xmlns="http://www.w3.org/1999/xhtml" style="display: table-cell; white-space: nowrap; line-height: 1.5; max-width: 200px; text-align: center;"><span class="nodeLabel"><p>Grafana<br />admin.a20-app-049.io.vn</p></span></div></foreignObject></g></g><g class="node default" id="my-svg-flowchart-LOKI-20" data-look="classic" transform="translate(2986.375, 899)"><rect class="basic label-container" style="" x="-107.5390625" y="-27" width="215.078125" height="54"/><g class="label" style="" transform="translate(-77.5390625, -12)"><rect/><foreignObject width="155.078125" height="24"><div xmlns="http://www.w3.org/1999/xhtml" style="display: table-cell; white-space: nowrap; line-height: 1.5; max-width: 200px; text-align: center;"><span class="nodeLabel"><p>Loki · log aggregation</p></span></div></foreignObject></g></g><g class="node default" id="my-svg-flowchart-LF-21" data-look="classic" transform="translate(3254.546875, 899)"><rect class="basic label-container" style="" x="-110.6328125" y="-27" width="221.265625" height="54"/><g class="label" style="" transform="translate(-80.6328125, -12)"><rect/><foreignObject width="161.265625" height="24"><div xmlns="http://www.w3.org/1999/xhtml" style="display: table-cell; white-space: nowrap; line-height: 1.5; max-width: 200px; text-align: center;"><span class="nodeLabel"><p>Langfuse · LLM tracing</p></span></div></foreignObject></g></g></g></g></g><defs><filter id="my-svg-drop-shadow" height="130%" width="130%"><feDropShadow dx="4" dy="4" stdDeviation="0" flood-opacity="0.06" flood-color="#000000"/></filter></defs><defs><filter id="my-svg-drop-shadow-small" height="150%" width="150%"><feDropShadow dx="2" dy="2" stdDeviation="0" flood-opacity="0.06" flood-color="#000000"/></filter></defs><linearGradient id="my-svg-gradient" gradientUnits="objectBoundingBox" x1="0%" y1="0%" x2="100%" y2="0%"><stop offset="0%" stop-color="#ca8a04" stop-opacity="1"/><stop offset="100%" stop-color="hsl(138.4615384615, 36.4705882353%, 86.6666666667%)" stop-opacity="1"/></linearGradient></svg>